<svg viewBox="0 0 57 57" xmlns="http://www.w3.org/2000/svg"><rect width="57px" height="57px" fill="#ffffff"/><path d="M4.2,4.2 4.8,4.2 4.8,4.8 4.2,4.8zM5.2,4.2 5.8,4.2 5.8,4.8 5.2,4.8zM6.2,4.2 6.8,4.2 6.8,4.8 6.2,4.8zM7.2,4.2 7.8,4.2 7.8,4.8 7.2,4.8zM8.2,4.2 8.8,4.2 8.8,4.8 8.2,4.8zM9.2,4.2 9.8,4.2 9.8,4.8 9.2,4.8zM10.2,4.2 10.8,4.2 10.8,4.8 10.2,4.8zM12.2,4.2 12.8,4.2 12.8,4.8 12.2,4.8zM13.2,4.2 13.8,4.2 13.8,4.8 13.2,4.8zM15.2,4.2 15.8,4.2 15.8,4.8 15.2,4.8zM18.2,4.2 18.8,4.2 18.8,4.8 18.2,4.8zM22.2,4.2 22.8,4.2 22.8,4.8 22.2,4.8zM23.2,4.2 23.8,4.2 23.8,4.8 23.2,4.8zM24.2,4.2 24.8,4.2 24.8,4.8 24.2,4.8zM27.2,4.2 27.8,4.2 27.8,4.8 27.2,4.8zM30.2,4.2 30.8,4.2 30.8,4.8 30.2,4.8zM33.2,4.2 33.8,4.2 33.8,4.8 33.2,4.8zM34.2,4.2 34.8,4.2 34.8,4.8 34.2,4.8zM39.2,4.2 39.8,4.2 39.8,4.8 39.2,4.8zM44.2,4.2 44.8,4.2 44.8,4.8 44.2,4.8zM46.2,4.2 46.8,4.2 46.8,4.8 46.2,4.8zM47.2,4.2 47.8,4.2 47.8,4.8 47.2,4.8zM48.2,4.2 48.8,4.2 48.8,4.8 48.2,4.8zM49.2,4.2 49.8,4.2 49.8,4.8 49.2,4.8zM50.2,4.2 50.8,4.2 50.8,4.8 50.2,4.8zM51.2,4.2 51.8,4.2 51.8,4.8 51.2,4.8zM52.2,4.2 52.8,4.2 52.8,4.8 52.2,4.8zM4.2,5.2 4.8,5.2 4.8,5.8 4.2,5.8zM10.2,5.2 10.8,5.2 10.8,5.8 10.2,5.8zM12.2,5.2 12.8,5.2 12.8,5.8 12.2,5.8zM13.2,5.2 13.8,5.2 13.8,5.8 13.2,5.8zM14.2,5.2 14.8,5.2 14.8,5.8 14.2,5.8zM17.2,5.2 17.8,5.2 17.8,5.8 17.2,5.8zM18.2,5.2 18.8,5.2 18.8,5.8 18.2,5.8zM19.2,5.2 19.8,5.2 19.8,5.8 19.2,5.8zM20.2,5.2 20.8,5.2 20.8,5.8 20.2,5.8zM21.2,5.2 21.8,5.2 21.8,5.8 21.2,5.8zM22.2,5.2 22.8,5.2 22.8,5.8 22.2,5.8zM25.2,5.2 25.8,5.2 25.8,5.8 25.2,5.8zM29.2,5.2 29.8,5.2 29.8,5.8 29.2,5.8zM32.2,5.2 32.8,5.2 32.8,5.8 32.2,5.8zM34.2,5.2 34.8,5.2 34.8,5.8 34.2,5.8zM35.2,5.2 35.8,5.2 35.8,5.8 35.2,5.8zM37.2,5.2 37.8,5.2 37.8,5.8 37.2,5.8zM38.2,5.2 38.8,5.2 38.8,5.8 38.2,5.8zM40.2,5.2 40.8,5.2 40.8,5.8 40.2,5.8zM42.2,5.2 42.8,5.2 42.8,5.8 42.2,5.8zM43.2,5.2 43.8,5.2 43.8,5.8 43.2,5.8zM44.2,5.2 44.8,5.2 44.8,5.8 44.2,5.8zM46.2,5.2 46.8,5.2 46.8,5.8 46.2,5.8zM52.2,5.2 52.8,5.2 52.8,5.8 52.2,5.8zM4.2,6.2 4.8,6.2 4.8,6.8 4.2,6.8zM6.2,6.2 6.8,6.2 6.8,6.8 6.2,6.8zM7.2,6.2 7.8,6.2 7.8,6.8 7.2,6.8zM8.2,6.2 8.8,6.2 8.8,6.8 8.2,6.8zM10.2,6.2 10.8,6.2 10.8,6.8 10.2,6.8zM12.2,6.2 12.8,6.2 12.8,6.8 12.2,6.8zM13.2,6.2 13.8,6.2 13.8,6.8 13.2,6.8zM14.2,6.2 14.8,6.2 14.8,6.8 14.2,6.8zM15.2,6.2 15.8,6.2 15.8,6.8 15.2,6.8zM17.2,6.2 17.8,6.2 17.8,6.8 17.2,6.8zM19.2,6.2 19.8,6.2 19.8,6.8 19.2,6.8zM20.2,6.2 20.8,6.2 20.8,6.8 20.2,6.8zM22.2,6.2 22.8,6.2 22.8,6.8 22.2,6.8zM25.2,6.2 25.8,6.2 25.8,6.8 25.2,6.8zM31.2,6.2 31.8,6.2 31.8,6.8 31.2,6.8zM32.2,6.2 32.8,6.2 32.8,6.8 32.2,6.8zM34.2,6.2 34.8,6.2 34.8,6.8 34.2,6.8zM35.2,6.2 35.8,6.2 35.8,6.8 35.2,6.8zM43.2,6.2 43.8,6.2 43.8,6.8 43.2,6.8zM44.2,6.2 44.8,6.2 44.8,6.8 44.2,6.8zM46.2,6.2 46.8,6.2 46.8,6.8 46.2,6.8zM48.2,6.2 48.8,6.2 48.8,6.8 48.2,6.8zM49.2,6.2 49.8,6.2 49.8,6.8 49.2,6.8zM50.2,6.2 50.8,6.2 50.8,6.8 50.2,6.8zM52.2,6.2 52.8,6.2 52.8,6.8 52.2,6.8zM4.2,7.2 4.8,7.2 4.8,7.8 4.2,7.8zM6.2,7.2 6.8,7.2 6.8,7.8 6.2,7.8zM7.2,7.2 7.8,7.2 7.8,7.8 7.2,7.8zM8.2,7.2 8.8,7.2 8.8,7.8 8.2,7.8zM10.2,7.2 10.8,7.2 10.8,7.8 10.2,7.8zM15.2,7.2 15.8,7.2 15.8,7.8 15.2,7.8zM19.2,7.2 19.8,7.2 19.8,7.8 19.2,7.8zM20.2,7.2 20.8,7.2 20.8,7.8 20.2,7.8zM21.2,7.2 21.8,7.2 21.8,7.8 21.2,7.8zM22.2,7.2 22.8,7.2 22.8,7.8 22.2,7.8zM23.2,7.2 23.8,7.2 23.8,7.8 23.2,7.8zM25.2,7.2 25.8,7.2 25.8,7.8 25.2,7.8zM26.2,7.2 26.8,7.2 26.8,7.8 26.2,7.8zM31.2,7.2 31.8,7.2 31.8,7.8 31.2,7.8zM33.2,7.2 33.8,7.2 33.8,7.8 33.2,7.8zM35.2,7.2 35.8,7.2 35.8,7.8 35.2,7.8zM36.2,7.2 36.8,7.2 36.8,7.8 36.2,7.8zM37.2,7.2 37.8,7.2 37.8,7.8 37.2,7.8zM39.2,7.2 39.8,7.2 39.8,7.8 39.2,7.8zM40.2,7.2 40.8,7.2 40.8,7.8 40.2,7.8zM41.2,7.2 41.8,7.2 41.8,7.8 41.2,7.8zM43.2,7.2 43.8,7.2 43.8,7.8 43.2,7.8zM46.2,7.2 46.8,7.2 46.8,7.8 46.2,7.8zM48.2,7.2 48.8,7.2 48.8,7.8 48.2,7.8zM49.2,7.2 49.8,7.2 49.8,7.8 49.2,7.8zM50.2,7.2 50.8,7.2 50.8,7.8 50.2,7.8zM52.2,7.2 52.8,7.2 52.8,7.8 52.2,7.8zM4.2,8.2 4.8,8.2 4.8,8.8 4.2,8.8zM6.2,8.2 6.8,8.2 6.8,8.8 6.2,8.8zM7.2,8.2 7.8,8.2 7.8,8.8 7.2,8.8zM8.2,8.2 8.8,8.2 8.8,8.8 8.2,8.8zM10.2,8.2 10.8,8.2 10.8,8.8 10.2,8.8zM14.2,8.2 14.8,8.2 14.8,8.8 14.2,8.8zM16.2,8.2 16.8,8.2 16.8,8.8 16.2,8.8zM17.2,8.2 17.8,8.2 17.8,8.8 17.2,8.8zM19.2,8.2 19.8,8.2 19.8,8.8 19.2,8.8zM22.2,8.2 22.8,8.2 22.8,8.8 22.2,8.8zM25.2,8.2 25.8,8.2 25.8,8.8 25.2,8.8zM26.2,8.2 26.8,8.2 26.8,8.8 26.2,8.8zM27.2,8.2 27.8,8.2 27.8,8.8 27.2,8.8zM28.2,8.2 28.8,8.2 28.8,8.8 28.2,8.8zM29.2,8.2 29.8,8.2 29.8,8.8 29.2,8.8zM30.2,8.2 30.8,8.2 30.8,8.8 30.2,8.8zM32.2,8.2 32.8,8.2 32.8,8.8 32.2,8.8zM34.2,8.2 34.8,8.2 34.8,8.8 34.2,8.8zM39.2,8.2 39.8,8.2 39.8,8.8 39.2,8.8zM41.2,8.2 41.8,8.2 41.8,8.8 41.2,8.8zM46.2,8.2 46.8,8.2 46.8,8.8 46.2,8.8zM48.2,8.2 48.8,8.2 48.8,8.8 48.2,8.8zM49.2,8.2 49.8,8.2 49.8,8.8 49.2,8.8zM50.2,8.2 50.8,8.2 50.8,8.8 50.2,8.8zM52.2,8.2 52.8,8.2 52.8,8.8 52.2,8.8zM4.2,9.2 4.8,9.2 4.8,9.8 4.2,9.8zM10.2,9.2 10.8,9.2 10.8,9.8 10.2,9.8zM12.2,9.2 12.8,9.2 12.8,9.8 12.2,9.8zM13.2,9.2 13.8,9.2 13.8,9.8 13.2,9.8zM16.2,9.2 16.8,9.2 16.8,9.8 16.2,9.8zM17.2,9.2 17.8,9.2 17.8,9.8 17.2,9.8zM18.2,9.2 18.8,9.2 18.8,9.8 18.2,9.8zM23.2,9.2 23.8,9.2 23.8,9.8 23.2,9.8zM24.2,9.2 24.8,9.2 24.8,9.8 24.2,9.8zM25.2,9.2 25.8,9.2 25.8,9.8 25.2,9.8zM26.2,9.2 26.8,9.2 26.8,9.8 26.2,9.8zM30.2,9.2 30.8,9.2 30.8,9.8 30.2,9.8zM33.2,9.2 33.8,9.2 33.8,9.8 33.2,9.8zM34.2,9.2 34.8,9.2 34.8,9.8 34.2,9.8zM35.2,9.2 35.8,9.2 35.8,9.8 35.2,9.8zM36.2,9.2 36.8,9.2 36.8,9.8 36.2,9.8zM37.2,9.2 37.8,9.2 37.8,9.8 37.2,9.8zM38.2,9.2 38.8,9.2 38.8,9.8 38.2,9.8zM39.2,9.2 39.8,9.2 39.8,9.8 39.2,9.8zM41.2,9.2 41.8,9.2 41.8,9.8 41.2,9.8zM42.2,9.2 42.8,9.2 42.8,9.8 42.2,9.8zM46.2,9.2 46.8,9.2 46.8,9.8 46.2,9.8zM52.2,9.2 52.8,9.2 52.8,9.8 52.2,9.8zM4.2,10.2 4.8,10.2 4.8,10.8 4.2,10.8zM5.2,10.2 5.8,10.2 5.8,10.8 5.2,10.8zM6.2,10.2 6.8,10.2 6.8,10.8 6.2,10.8zM7.2,10.2 7.8,10.2 7.8,10.8 7.2,10.8zM8.2,10.2 8.8,10.2 8.8,10.8 8.2,10.8zM9.2,10.2 9.8,10.2 9.8,10.8 9.2,10.8zM10.2,10.2 10.8,10.2 10.8,10.8 10.2,10.8zM12.2,10.2 12.8,10.2 12.8,10.8 12.2,10.8zM14.2,10.2 14.8,10.2 14.8,10.8 14.2,10.8zM16.2,10.2 16.8,10.2 16.8,10.8 16.2,10.8zM18.2,10.2 18.8,10.2 18.8,10.8 18.2,10.8zM20.2,10.2 20.8,10.2 20.8,10.8 20.2,10.8zM22.2,10.2 22.8,10.2 22.8,10.8 22.2,10.8zM24.2,10.2 24.8,10.2 24.8,10.8 24.2,10.8zM26.2,10.2 26.8,10.2 26.8,10.8 26.2,10.8zM28.2,10.2 28.8,10.2 28.8,10.8 28.2,10.8zM30.2,10.2 30.8,10.2 30.8,10.8 30.2,10.8zM32.2,10.2 32.8,10.2 32.8,10.8 32.2,10.8zM34.2,10.2 34.8,10.2 34.8,10.8 34.2,10.8zM36.2,10.2 36.8,10.2 36.8,10.8 36.2,10.8zM38.2,10.2 38.8,10.2 38.8,10.8 38.2,10.8zM40.2,10.2 40.8,10.2 40.8,10.8 40.2,10.8zM42.2,10.2 42.8,10.2 42.8,10.8 42.2,10.8zM44.2,10.2 44.8,10.2 44.8,10.8 44.2,10.8zM46.2,10.2 46.8,10.2 46.8,10.8 46.2,10.8zM47.2,10.2 47.8,10.2 47.8,10.8 47.2,10.8zM48.2,10.2 48.8,10.2 48.8,10.8 48.2,10.8zM49.2,10.2 49.8,10.2 49.8,10.8 49.2,10.8zM50.2,10.2 50.8,10.2 50.8,10.8 50.2,10.8zM51.2,10.2 51.8,10.2 51.8,10.8 51.2,10.8zM52.2,10.2 52.8,10.2 52.8,10.8 52.2,10.8zM12.2,11.2 12.8,11.2 12.8,11.8 12.2,11.8zM13.2,11.2 13.8,11.2 13.8,11.8 13.2,11.8zM16.2,11.2 16.8,11.2 16.8,11.8 16.2,11.8zM20.2,11.2 20.8,11.2 20.8,11.8 20.2,11.8zM21.2,11.2 21.8,11.2 21.8,11.8 21.2,11.8zM22.2,11.2 22.8,11.2 22.8,11.8 22.2,11.8zM24.2,11.2 24.8,11.2 24.8,11.8 24.2,11.8zM26.2,11.2 26.8,11.2 26.8,11.8 26.2,11.8zM30.2,11.2 30.8,11.2 30.8,11.8 30.2,11.8zM32.2,11.2 32.8,11.2 32.8,11.8 32.2,11.8zM36.2,11.2 36.8,11.2 36.8,11.8 36.2,11.8zM37.2,11.2 37.8,11.2 37.8,11.8 37.2,11.8zM40.2,11.2 40.8,11.2 40.8,11.8 40.2,11.8zM41.2,11.2 41.8,11.2 41.8,11.8 41.2,11.8zM6.2,12.2 6.8,12.2 6.8,12.8 6.2,12.8zM7.2,12.2 7.8,12.2 7.8,12.8 7.2,12.8zM8.2,12.2 8.8,12.2 8.8,12.8 8.2,12.8zM10.2,12.2 10.8,12.2 10.8,12.8 10.2,12.8zM12.2,12.2 12.8,12.2 12.8,12.8 12.2,12.8zM18.2,12.2 18.8,12.2 18.8,12.8 18.2,12.8zM19.2,12.2 19.8,12.2 19.8,12.8 19.2,12.8zM22.2,12.2 22.8,12.2 22.8,12.8 22.2,12.8zM23.2,12.2 23.8,12.2 23.8,12.8 23.2,12.8zM24.2,12.2 24.8,12.2 24.8,12.8 24.2,12.8zM26.2,12.2 26.8,12.2 26.8,12.8 26.2,12.8zM27.2,12.2 27.8,12.2 27.8,12.8 27.2,12.8zM28.2,12.2 28.8,12.2 28.8,12.8 28.2,12.8zM29.2,12.2 29.8,12.2 29.8,12.8 29.2,12.8zM30.2,12.2 30.8,12.2 30.8,12.8 30.2,12.8zM31.2,12.2 31.8,12.2 31.8,12.8 31.2,12.8zM35.2,12.2 35.8,12.2 35.8,12.8 35.2,12.8zM36.2,12.2 36.8,12.2 36.8,12.8 36.2,12.8zM39.2,12.2 39.8,12.2 39.8,12.8 39.2,12.8zM41.2,12.2 41.8,12.2 41.8,12.8 41.2,12.8zM43.2,12.2 43.8,12.2 43.8,12.8 43.2,12.8zM44.2,12.2 44.8,12.2 44.8,12.8 44.2,12.8zM45.2,12.2 45.8,12.2 45.8,12.8 45.2,12.8zM46.2,12.2 46.8,12.2 46.8,12.8 46.2,12.8zM47.2,12.2 47.8,12.2 47.8,12.8 47.2,12.8zM50.2,12.2 50.8,12.2 50.8,12.8 50.2,12.8zM51.2,12.2 51.8,12.2 51.8,12.8 51.2,12.8zM52.2,12.2 52.8,12.2 52.8,12.8 52.2,12.8zM7.2,13.2 7.8,13.2 7.8,13.8 7.2,13.8zM8.2,13.2 8.8,13.2 8.8,13.8 8.2,13.8zM9.2,13.2 9.8,13.2 9.8,13.8 9.2,13.8zM14.2,13.2 14.8,13.2 14.8,13.8 14.2,13.8zM16.2,13.2 16.8,13.2 16.8,13.8 16.2,13.8zM17.2,13.2 17.8,13.2 17.8,13.8 17.2,13.8zM20.2,13.2 20.8,13.2 20.8,13.8 20.2,13.8zM21.2,13.2 21.8,13.2 21.8,13.8 21.2,13.8zM23.2,13.2 23.8,13.2 23.8,13.8 23.2,13.8zM24.2,13.2 24.8,13.2 24.8,13.8 24.2,13.8zM25.2,13.2 25.8,13.2 25.8,13.8 25.2,13.8zM28.2,13.2 28.8,13.2 28.8,13.8 28.2,13.8zM32.2,13.2 32.8,13.2 32.8,13.8 32.2,13.8zM35.2,13.2 35.8,13.2 35.8,13.8 35.2,13.8zM41.2,13.2 41.8,13.2 41.8,13.8 41.2,13.8zM45.2,13.2 45.8,13.2 45.8,13.8 45.2,13.8zM46.2,13.2 46.8,13.2 46.8,13.8 46.2,13.8zM6.2,14.2 6.8,14.2 6.8,14.8 6.2,14.8zM7.2,14.2 7.8,14.2 7.8,14.8 7.2,14.8zM8.2,14.2 8.8,14.2 8.8,14.8 8.2,14.8zM10.2,14.2 10.8,14.2 10.8,14.8 10.2,14.8zM12.2,14.2 12.8,14.2 12.8,14.8 12.2,14.8zM13.2,14.2 13.8,14.2 13.8,14.8 13.2,14.8zM15.2,14.2 15.8,14.2 15.8,14.8 15.2,14.8zM16.2,14.2 16.8,14.2 16.8,14.8 16.2,14.8zM18.2,14.2 18.8,14.2 18.8,14.8 18.2,14.8zM19.2,14.2 19.8,14.2 19.8,14.8 19.2,14.8zM23.2,14.2 23.8,14.2 23.8,14.8 23.2,14.8zM24.2,14.2 24.8,14.2 24.8,14.8 24.2,14.8zM25.2,14.2 25.8,14.2 25.8,14.8 25.2,14.8zM27.2,14.2 27.8,14.2 27.8,14.8 27.2,14.8zM30.2,14.2 30.8,14.2 30.8,14.8 30.2,14.8zM32.2,14.2 32.8,14.2 32.8,14.8 32.2,14.8zM33.2,14.2 33.8,14.2 33.8,14.8 33.2,14.8zM34.2,14.2 34.8,14.2 34.8,14.8 34.2,14.8zM35.2,14.2 35.8,14.2 35.8,14.8 35.2,14.8zM36.2,14.2 36.8,14.2 36.8,14.8 36.2,14.8zM38.2,14.2 38.8,14.2 38.8,14.8 38.2,14.8zM39.2,14.2 39.8,14.2 39.8,14.8 39.2,14.8zM42.2,14.2 42.8,14.2 42.8,14.8 42.2,14.8zM44.2,14.2 44.8,14.2 44.8,14.8 44.2,14.8zM47.2,14.2 47.8,14.2 47.8,14.8 47.2,14.8zM48.2,14.2 48.8,14.2 48.8,14.8 48.2,14.8zM49.2,14.2 49.8,14.2 49.8,14.8 49.2,14.8zM52.2,14.2 52.8,14.2 52.8,14.8 52.2,14.8zM4.2,15.2 4.8,15.2 4.8,15.8 4.2,15.8zM5.2,15.2 5.8,15.2 5.8,15.8 5.2,15.8zM6.2,15.2 6.8,15.2 6.8,15.8 6.2,15.8zM8.2,15.2 8.8,15.2 8.8,15.8 8.2,15.8zM11.2,15.2 11.8,15.2 11.8,15.8 11.2,15.8zM12.2,15.2 12.8,15.2 12.8,15.8 12.2,15.8zM15.2,15.2 15.8,15.2 15.8,15.8 15.2,15.8zM16.2,15.2 16.8,15.2 16.8,15.8 16.2,15.8zM17.2,15.2 17.8,15.2 17.8,15.8 17.2,15.8zM18.2,15.2 18.8,15.2 18.8,15.8 18.2,15.8zM22.2,15.2 22.8,15.2 22.8,15.8 22.2,15.8zM24.2,15.2 24.8,15.2 24.8,15.8 24.2,15.8zM25.2,15.2 25.8,15.2 25.8,15.8 25.2,15.8zM27.2,15.2 27.8,15.2 27.8,15.8 27.2,15.8zM28.2,15.2 28.8,15.2 28.8,15.8 28.2,15.8zM29.2,15.2 29.8,15.2 29.8,15.8 29.2,15.8zM30.2,15.2 30.8,15.2 30.8,15.8 30.2,15.8zM32.2,15.2 32.8,15.2 32.8,15.8 32.2,15.8zM33.2,15.2 33.8,15.2 33.8,15.8 33.2,15.8zM35.2,15.2 35.8,15.2 35.8,15.8 35.2,15.8zM38.2,15.2 38.8,15.2 38.8,15.8 38.2,15.8zM42.2,15.2 42.8,15.2 42.8,15.8 42.2,15.8zM43.2,15.2 43.8,15.2 43.8,15.8 43.2,15.8zM45.2,15.2 45.8,15.2 45.8,15.8 45.2,15.8zM48.2,15.2 48.8,15.2 48.8,15.8 48.2,15.8zM49.2,15.2 49.8,15.2 49.8,15.8 49.2,15.8zM51.2,15.2 51.8,15.2 51.8,15.8 51.2,15.8zM52.2,15.2 52.8,15.2 52.8,15.8 52.2,15.8zM4.2,16.2 4.8,16.2 4.8,16.8 4.2,16.8zM5.2,16.2 5.8,16.2 5.8,16.8 5.2,16.8zM6.2,16.2 6.8,16.2 6.8,16.8 6.2,16.8zM8.2,16.2 8.8,16.2 8.8,16.8 8.2,16.8zM10.2,16.2 10.8,16.2 10.8,16.8 10.2,16.8zM11.2,16.2 11.8,16.2 11.8,16.8 11.2,16.8zM12.2,16.2 12.8,16.2 12.8,16.8 12.2,16.8zM13.2,16.2 13.8,16.2 13.8,16.8 13.2,16.8zM16.2,16.2 16.8,16.2 16.8,16.8 16.2,16.8zM17.2,16.2 17.8,16.2 17.8,16.8 17.2,16.8zM18.2,16.2 18.8,16.2 18.8,16.8 18.2,16.8zM22.2,16.2 22.8,16.2 22.8,16.8 22.2,16.8zM24.2,16.2 24.8,16.2 24.8,16.8 24.2,16.8zM25.2,16.2 25.8,16.2 25.8,16.8 25.2,16.8zM29.2,16.2 29.8,16.2 29.8,16.8 29.2,16.8zM31.2,16.2 31.8,16.2 31.8,16.8 31.2,16.8zM33.2,16.2 33.8,16.2 33.8,16.8 33.2,16.8zM34.2,16.2 34.8,16.2 34.8,16.8 34.2,16.8zM35.2,16.2 35.8,16.2 35.8,16.8 35.2,16.8zM36.2,16.2 36.8,16.2 36.8,16.8 36.2,16.8zM39.2,16.2 39.8,16.2 39.8,16.8 39.2,16.8zM40.2,16.2 40.8,16.2 40.8,16.8 40.2,16.8zM43.2,16.2 43.8,16.2 43.8,16.8 43.2,16.8zM44.2,16.2 44.8,16.2 44.8,16.8 44.2,16.8zM47.2,16.2 47.8,16.2 47.8,16.8 47.2,16.8zM49.2,16.2 49.8,16.2 49.8,16.8 49.2,16.8zM50.2,16.2 50.8,16.2 50.8,16.8 50.2,16.8zM51.2,16.2 51.8,16.2 51.8,16.8 51.2,16.8zM4.2,17.2 4.8,17.2 4.8,17.8 4.2,17.8zM12.2,17.2 12.8,17.2 12.8,17.8 12.2,17.8zM14.2,17.2 14.8,17.2 14.8,17.8 14.2,17.8zM17.2,17.2 17.8,17.2 17.8,17.8 17.2,17.8zM20.2,17.2 20.8,17.2 20.8,17.8 20.2,17.8zM22.2,17.2 22.8,17.2 22.8,17.8 22.2,17.8zM26.2,17.2 26.8,17.2 26.8,17.8 26.2,17.8zM28.2,17.2 28.8,17.2 28.8,17.8 28.2,17.8zM29.2,17.2 29.8,17.2 29.8,17.8 29.2,17.8zM31.2,17.2 31.8,17.2 31.8,17.8 31.2,17.8zM33.2,17.2 33.8,17.2 33.8,17.8 33.2,17.8zM34.2,17.2 34.8,17.2 34.8,17.8 34.2,17.8zM35.2,17.2 35.8,17.2 35.8,17.8 35.2,17.8zM36.2,17.2 36.8,17.2 36.8,17.8 36.2,17.8zM40.2,17.2 40.8,17.2 40.8,17.8 40.2,17.8zM43.2,17.2 43.8,17.2 43.8,17.8 43.2,17.8zM45.2,17.2 45.8,17.2 45.8,17.8 45.2,17.8zM46.2,17.2 46.8,17.2 46.8,17.8 46.2,17.8zM48.2,17.2 48.8,17.2 48.8,17.8 48.2,17.8zM49.2,17.2 49.8,17.2 49.8,17.8 49.2,17.8zM51.2,17.2 51.8,17.2 51.8,17.8 51.2,17.8zM7.2,18.2 7.8,18.2 7.8,18.8 7.2,18.8zM8.2,18.2 8.8,18.2 8.8,18.8 8.2,18.8zM10.2,18.2 10.8,18.2 10.8,18.8 10.2,18.8zM11.2,18.2 11.8,18.2 11.8,18.8 11.2,18.8zM12.2,18.2 12.8,18.2 12.8,18.8 12.2,18.8zM16.2,18.2 16.8,18.2 16.8,18.8 16.2,18.8zM17.2,18.2 17.8,18.2 17.8,18.8 17.2,18.8zM21.2,18.2 21.8,18.2 21.8,18.8 21.2,18.8zM22.2,18.2 22.8,18.2 22.8,18.8 22.2,18.8zM24.2,18.2 24.8,18.2 24.8,18.8 24.2,18.8zM26.2,18.2 26.8,18.2 26.8,18.8 26.2,18.8zM28.2,18.2 28.8,18.2 28.8,18.8 28.2,18.8zM29.2,18.2 29.8,18.2 29.8,18.8 29.2,18.8zM31.2,18.2 31.8,18.2 31.8,18.8 31.2,18.8zM33.2,18.2 33.8,18.2 33.8,18.8 33.2,18.8zM34.2,18.2 34.8,18.2 34.8,18.8 34.2,18.8zM36.2,18.2 36.8,18.2 36.8,18.8 36.2,18.8zM37.2,18.2 37.8,18.2 37.8,18.8 37.2,18.8zM38.2,18.2 38.8,18.2 38.8,18.8 38.2,18.8zM39.2,18.2 39.8,18.2 39.8,18.8 39.2,18.8zM40.2,18.2 40.8,18.2 40.8,18.8 40.2,18.8zM42.2,18.2 42.8,18.2 42.8,18.8 42.2,18.8zM43.2,18.2 43.8,18.2 43.8,18.8 43.2,18.8zM44.2,18.2 44.8,18.2 44.8,18.8 44.2,18.8zM48.2,18.2 48.8,18.2 48.8,18.8 48.2,18.8zM51.2,18.2 51.8,18.2 51.8,18.8 51.2,18.8zM52.2,18.2 52.8,18.2 52.8,18.8 52.2,18.8zM4.2,19.2 4.8,19.2 4.8,19.8 4.2,19.8zM5.2,19.2 5.8,19.2 5.8,19.8 5.2,19.8zM8.2,19.2 8.8,19.2 8.8,19.8 8.2,19.8zM11.2,19.2 11.8,19.2 11.8,19.8 11.2,19.8zM12.2,19.2 12.8,19.2 12.8,19.8 12.2,19.8zM13.2,19.2 13.8,19.2 13.8,19.8 13.2,19.8zM21.2,19.2 21.8,19.2 21.8,19.8 21.2,19.8zM23.2,19.2 23.8,19.2 23.8,19.8 23.2,19.8zM24.2,19.2 24.8,19.2 24.8,19.8 24.2,19.8zM25.2,19.2 25.8,19.2 25.8,19.8 25.2,19.8zM29.2,19.2 29.8,19.2 29.8,19.8 29.2,19.8zM30.2,19.2 30.8,19.2 30.8,19.8 30.2,19.8zM34.2,19.2 34.8,19.2 34.8,19.8 34.2,19.8zM35.2,19.2 35.8,19.2 35.8,19.8 35.2,19.8zM36.2,19.2 36.8,19.2 36.8,19.8 36.2,19.8zM37.2,19.2 37.8,19.2 37.8,19.8 37.2,19.8zM43.2,19.2 43.8,19.2 43.8,19.8 43.2,19.8zM44.2,19.2 44.8,19.2 44.8,19.8 44.2,19.8zM45.2,19.2 45.8,19.2 45.8,19.8 45.2,19.8zM48.2,19.2 48.8,19.2 48.8,19.8 48.2,19.8zM49.2,19.2 49.8,19.2 49.8,19.8 49.2,19.8zM52.2,19.2 52.8,19.2 52.8,19.8 52.2,19.8zM5.2,20.2 5.8,20.2 5.8,20.8 5.2,20.8zM6.2,20.2 6.8,20.2 6.8,20.8 6.2,20.8zM9.2,20.2 9.8,20.2 9.8,20.8 9.2,20.8zM10.2,20.2 10.8,20.2 10.8,20.8 10.2,20.8zM13.2,20.2 13.8,20.2 13.8,20.8 13.2,20.8zM14.2,20.2 14.8,20.2 14.8,20.8 14.2,20.8zM18.2,20.2 18.8,20.2 18.8,20.8 18.2,20.8zM19.2,20.2 19.8,20.2 19.8,20.8 19.2,20.8zM20.2,20.2 20.8,20.2 20.8,20.8 20.2,20.8zM23.2,20.2 23.8,20.2 23.8,20.8 23.2,20.8zM24.2,20.2 24.8,20.2 24.8,20.8 24.2,20.8zM26.2,20.2 26.8,20.2 26.8,20.8 26.2,20.8zM29.2,20.2 29.8,20.2 29.8,20.8 29.2,20.8zM30.2,20.2 30.8,20.2 30.8,20.8 30.2,20.8zM33.2,20.2 33.8,20.2 33.8,20.8 33.2,20.8zM34.2,20.2 34.8,20.2 34.8,20.8 34.2,20.8zM35.2,20.2 35.8,20.2 35.8,20.8 35.2,20.8zM36.2,20.2 36.8,20.2 36.8,20.8 36.2,20.8zM39.2,20.2 39.8,20.2 39.8,20.8 39.2,20.8zM40.2,20.2 40.8,20.2 40.8,20.8 40.2,20.8zM41.2,20.2 41.8,20.2 41.8,20.8 41.2,20.8zM43.2,20.2 43.8,20.2 43.8,20.8 43.2,20.8zM47.2,20.2 47.8,20.2 47.8,20.8 47.2,20.8zM52.2,20.2 52.8,20.2 52.8,20.8 52.2,20.8zM6.2,21.2 6.8,21.2 6.8,21.8 6.2,21.8zM7.2,21.2 7.8,21.2 7.8,21.8 7.2,21.8zM11.2,21.2 11.8,21.2 11.8,21.8 11.2,21.8zM12.2,21.2 12.8,21.2 12.8,21.8 12.2,21.8zM13.2,21.2 13.8,21.2 13.8,21.8 13.2,21.8zM15.2,21.2 15.8,21.2 15.8,21.8 15.2,21.8zM16.2,21.2 16.8,21.2 16.8,21.8 16.2,21.8zM17.2,21.2 17.8,21.2 17.8,21.8 17.2,21.8zM18.2,21.2 18.8,21.2 18.8,21.8 18.2,21.8zM19.2,21.2 19.8,21.2 19.8,21.8 19.2,21.8zM20.2,21.2 20.8,21.2 20.8,21.8 20.2,21.8zM21.2,21.2 21.8,21.2 21.8,21.8 21.2,21.8zM22.2,21.2 22.8,21.2 22.8,21.8 22.2,21.8zM24.2,21.2 24.8,21.2 24.8,21.8 24.2,21.8zM27.2,21.2 27.8,21.2 27.8,21.8 27.2,21.8zM28.2,21.2 28.8,21.2 28.8,21.8 28.2,21.8zM30.2,21.2 30.8,21.2 30.8,21.8 30.2,21.8zM33.2,21.2 33.8,21.2 33.8,21.8 33.2,21.8zM35.2,21.2 35.8,21.2 35.8,21.8 35.2,21.8zM37.2,21.2 37.8,21.2 37.8,21.8 37.2,21.8zM40.2,21.2 40.8,21.2 40.8,21.8 40.2,21.8zM44.2,21.2 44.8,21.2 44.8,21.8 44.2,21.8zM45.2,21.2 45.8,21.2 45.8,21.8 45.2,21.8zM48.2,21.2 48.8,21.2 48.8,21.8 48.2,21.8zM49.2,21.2 49.8,21.2 49.8,21.8 49.2,21.8zM50.2,21.2 50.8,21.2 50.8,21.8 50.2,21.8zM51.2,21.2 51.8,21.2 51.8,21.8 51.2,21.8zM4.2,22.2 4.8,22.2 4.8,22.8 4.2,22.8zM5.2,22.2 5.8,22.2 5.8,22.8 5.2,22.8zM8.2,22.2 8.8,22.2 8.8,22.8 8.2,22.8zM10.2,22.2 10.8,22.2 10.8,22.8 10.2,22.8zM15.2,22.2 15.8,22.2 15.8,22.8 15.2,22.8zM16.2,22.2 16.8,22.2 16.8,22.8 16.2,22.8zM18.2,22.2 18.8,22.2 18.8,22.8 18.2,22.8zM19.2,22.2 19.8,22.2 19.8,22.8 19.2,22.8zM20.2,22.2 20.8,22.2 20.8,22.8 20.2,22.8zM21.2,22.2 21.8,22.2 21.8,22.8 21.2,22.8zM22.2,22.2 22.8,22.2 22.8,22.8 22.2,22.8zM23.2,22.2 23.8,22.2 23.8,22.8 23.2,22.8zM24.2,22.2 24.8,22.2 24.8,22.8 24.2,22.8zM25.2,22.2 25.8,22.2 25.8,22.8 25.2,22.8zM29.2,22.2 29.8,22.2 29.8,22.8 29.2,22.8zM33.2,22.2 33.8,22.2 33.8,22.8 33.2,22.8zM34.2,22.2 34.8,22.2 34.8,22.8 34.2,22.8zM36.2,22.2 36.8,22.2 36.8,22.8 36.2,22.8zM39.2,22.2 39.8,22.2 39.8,22.8 39.2,22.8zM41.2,22.2 41.8,22.2 41.8,22.8 41.2,22.8zM43.2,22.2 43.8,22.2 43.8,22.8 43.2,22.8zM44.2,22.2 44.8,22.2 44.8,22.8 44.2,22.8zM46.2,22.2 46.8,22.2 46.8,22.8 46.2,22.8zM49.2,22.2 49.8,22.2 49.8,22.8 49.2,22.8zM51.2,22.2 51.8,22.2 51.8,22.8 51.2,22.8zM52.2,22.2 52.8,22.2 52.8,22.8 52.2,22.8zM4.2,23.2 4.8,23.2 4.8,23.8 4.2,23.8zM6.2,23.2 6.8,23.2 6.8,23.8 6.2,23.8zM8.2,23.2 8.8,23.2 8.8,23.8 8.2,23.8zM9.2,23.2 9.8,23.2 9.8,23.8 9.2,23.8zM13.2,23.2 13.8,23.2 13.8,23.8 13.2,23.8zM15.2,23.2 15.8,23.2 15.8,23.8 15.2,23.8zM16.2,23.2 16.8,23.2 16.8,23.8 16.2,23.8zM17.2,23.2 17.8,23.2 17.8,23.8 17.2,23.8zM19.2,23.2 19.8,23.2 19.8,23.8 19.2,23.8zM20.2,23.2 20.8,23.2 20.8,23.8 20.2,23.8zM21.2,23.2 21.8,23.2 21.8,23.8 21.2,23.8zM22.2,23.2 22.8,23.2 22.8,23.8 22.2,23.8zM23.2,23.2 23.8,23.2 23.8,23.8 23.2,23.8zM24.2,23.2 24.8,23.2 24.8,23.8 24.2,23.8zM25.2,23.2 25.8,23.2 25.8,23.8 25.2,23.8zM27.2,23.2 27.8,23.2 27.8,23.8 27.2,23.8zM29.2,23.2 29.8,23.2 29.8,23.8 29.2,23.8zM30.2,23.2 30.8,23.2 30.8,23.8 30.2,23.8zM37.2,23.2 37.8,23.2 37.8,23.8 37.2,23.8zM41.2,23.2 41.8,23.2 41.8,23.8 41.2,23.8zM42.2,23.2 42.8,23.2 42.8,23.8 42.2,23.8zM44.2,23.2 44.8,23.2 44.8,23.8 44.2,23.8zM46.2,23.2 46.8,23.2 46.8,23.8 46.2,23.8zM47.2,23.2 47.8,23.2 47.8,23.8 47.2,23.8zM48.2,23.2 48.8,23.2 48.8,23.8 48.2,23.8zM51.2,23.2 51.8,23.2 51.8,23.8 51.2,23.8zM52.2,23.2 52.8,23.2 52.8,23.8 52.2,23.8zM7.2,24.2 7.8,24.2 7.8,24.8 7.2,24.8zM8.2,24.2 8.8,24.2 8.8,24.8 8.2,24.8zM9.2,24.2 9.8,24.2 9.8,24.8 9.2,24.8zM10.2,24.2 10.8,24.2 10.8,24.8 10.2,24.8zM11.2,24.2 11.8,24.2 11.8,24.8 11.2,24.8zM12.2,24.2 12.8,24.2 12.8,24.8 12.2,24.8zM13.2,24.2 13.8,24.2 13.8,24.8 13.2,24.8zM14.2,24.2 14.8,24.2 14.8,24.8 14.2,24.8zM17.2,24.2 17.8,24.2 17.8,24.8 17.2,24.8zM20.2,24.2 20.8,24.2 20.8,24.8 20.2,24.8zM21.2,24.2 21.8,24.2 21.8,24.8 21.2,24.8zM22.2,24.2 22.8,24.2 22.8,24.8 22.2,24.8zM24.2,24.2 24.8,24.2 24.8,24.8 24.2,24.8zM36.2,24.2 36.8,24.2 36.8,24.8 36.2,24.8zM38.2,24.2 38.8,24.2 38.8,24.8 38.2,24.8zM39.2,24.2 39.8,24.2 39.8,24.8 39.2,24.8zM40.2,24.2 40.8,24.2 40.8,24.8 40.2,24.8zM41.2,24.2 41.8,24.2 41.8,24.8 41.2,24.8zM42.2,24.2 42.8,24.2 42.8,24.8 42.2,24.8zM44.2,24.2 44.8,24.2 44.8,24.8 44.2,24.8zM46.2,24.2 46.8,24.2 46.8,24.8 46.2,24.8zM47.2,24.2 47.8,24.2 47.8,24.8 47.2,24.8zM50.2,24.2 50.8,24.2 50.8,24.8 50.2,24.8zM51.2,24.2 51.8,24.2 51.8,24.8 51.2,24.8zM52.2,24.2 52.8,24.2 52.8,24.8 52.2,24.8zM5.2,25.2 5.8,25.2 5.8,25.8 5.2,25.8zM8.2,25.2 8.8,25.2 8.8,25.8 8.2,25.8zM14.2,25.2 14.8,25.2 14.8,25.8 14.2,25.8zM15.2,25.2 15.8,25.2 15.8,25.8 15.2,25.8zM17.2,25.2 17.8,25.2 17.8,25.8 17.2,25.8zM18.2,25.2 18.8,25.2 18.8,25.8 18.2,25.8zM20.2,25.2 20.8,25.2 20.8,25.8 20.2,25.8zM22.2,25.2 22.8,25.2 22.8,25.8 22.2,25.8zM23.2,25.2 23.8,25.2 23.8,25.8 23.2,25.8zM28.2,25.2 28.8,25.2 28.8,25.8 28.2,25.8zM31.2,25.2 31.8,25.2 31.8,25.8 31.2,25.8zM32.2,25.2 32.8,25.2 32.8,25.8 32.2,25.8zM33.2,25.2 33.8,25.2 33.8,25.8 33.2,25.8zM35.2,25.2 35.8,25.2 35.8,25.8 35.2,25.8zM39.2,25.2 39.8,25.2 39.8,25.8 39.2,25.8zM40.2,25.2 40.8,25.2 40.8,25.8 40.2,25.8zM45.2,25.2 45.8,25.2 45.8,25.8 45.2,25.8zM46.2,25.2 46.8,25.2 46.8,25.8 46.2,25.8zM49.2,25.2 49.8,25.2 49.8,25.8 49.2,25.8zM4.2,26.2 4.8,26.2 4.8,26.8 4.2,26.8zM5.2,26.2 5.8,26.2 5.8,26.8 5.2,26.8zM7.2,26.2 7.8,26.2 7.8,26.8 7.2,26.8zM8.2,26.2 8.8,26.2 8.8,26.8 8.2,26.8zM9.2,26.2 9.8,26.2 9.8,26.8 9.2,26.8zM10.2,26.2 10.8,26.2 10.8,26.8 10.2,26.8zM11.2,26.2 11.8,26.2 11.8,26.8 11.2,26.8zM12.2,26.2 12.8,26.2 12.8,26.8 12.2,26.8zM15.2,26.2 15.8,26.2 15.8,26.8 15.2,26.8zM19.2,26.2 19.8,26.2 19.8,26.8 19.2,26.8zM20.2,26.2 20.8,26.2 20.8,26.8 20.2,26.8zM21.2,26.2 21.8,26.2 21.8,26.8 21.2,26.8zM26.2,26.2 26.8,26.2 26.8,26.8 26.2,26.8zM27.2,26.2 27.8,26.2 27.8,26.8 27.2,26.8zM28.2,26.2 28.8,26.2 28.8,26.8 28.2,26.8zM29.2,26.2 29.8,26.2 29.8,26.8 29.2,26.8zM30.2,26.2 30.8,26.2 30.8,26.8 30.2,26.8zM31.2,26.2 31.8,26.2 31.8,26.8 31.2,26.8zM36.2,26.2 36.8,26.2 36.8,26.8 36.2,26.8zM38.2,26.2 38.8,26.2 38.8,26.8 38.2,26.8zM42.2,26.2 42.8,26.2 42.8,26.8 42.2,26.8zM44.2,26.2 44.8,26.2 44.8,26.8 44.2,26.8zM45.2,26.2 45.8,26.2 45.8,26.8 45.2,26.8zM46.2,26.2 46.8,26.2 46.8,26.8 46.2,26.8zM47.2,26.2 47.8,26.2 47.8,26.8 47.2,26.8zM48.2,26.2 48.8,26.2 48.8,26.8 48.2,26.8zM50.2,26.2 50.8,26.2 50.8,26.8 50.2,26.8zM51.2,26.2 51.8,26.2 51.8,26.8 51.2,26.8zM52.2,26.2 52.8,26.2 52.8,26.8 52.2,26.8zM5.2,27.2 5.8,27.2 5.8,27.8 5.2,27.8zM6.2,27.2 6.8,27.2 6.8,27.8 6.2,27.8zM7.2,27.2 7.8,27.2 7.8,27.8 7.2,27.8zM8.2,27.2 8.8,27.2 8.8,27.8 8.2,27.8zM12.2,27.2 12.8,27.2 12.8,27.8 12.2,27.8zM15.2,27.2 15.8,27.2 15.8,27.8 15.2,27.8zM16.2,27.2 16.8,27.2 16.8,27.8 16.2,27.8zM17.2,27.2 17.8,27.2 17.8,27.8 17.2,27.8zM18.2,27.2 18.8,27.2 18.8,27.8 18.2,27.8zM19.2,27.2 19.8,27.2 19.8,27.8 19.2,27.8zM22.2,27.2 22.8,27.2 22.8,27.8 22.2,27.8zM24.2,27.2 24.8,27.2 24.8,27.8 24.2,27.8zM25.2,27.2 25.8,27.2 25.8,27.8 25.2,27.8zM26.2,27.2 26.8,27.2 26.8,27.8 26.2,27.8zM30.2,27.2 30.8,27.2 30.8,27.8 30.2,27.8zM33.2,27.2 33.8,27.2 33.8,27.8 33.2,27.8zM38.2,27.2 38.8,27.2 38.8,27.8 38.2,27.8zM42.2,27.2 42.8,27.2 42.8,27.8 42.2,27.8zM43.2,27.2 43.8,27.2 43.8,27.8 43.2,27.8zM44.2,27.2 44.8,27.2 44.8,27.8 44.2,27.8zM48.2,27.2 48.8,27.2 48.8,27.8 48.2,27.8zM51.2,27.2 51.8,27.2 51.8,27.8 51.2,27.8zM4.2,28.2 4.8,28.2 4.8,28.8 4.2,28.8zM6.2,28.2 6.8,28.2 6.8,28.8 6.2,28.8zM7.2,28.2 7.8,28.2 7.8,28.8 7.2,28.8zM8.2,28.2 8.8,28.2 8.8,28.8 8.2,28.8zM10.2,28.2 10.8,28.2 10.8,28.8 10.2,28.8zM12.2,28.2 12.8,28.2 12.8,28.8 12.2,28.8zM21.2,28.2 21.8,28.2 21.8,28.8 21.2,28.8zM23.2,28.2 23.8,28.2 23.8,28.8 23.2,28.8zM24.2,28.2 24.8,28.2 24.8,28.8 24.2,28.8zM26.2,28.2 26.8,28.2 26.8,28.8 26.2,28.8zM28.2,28.2 28.8,28.2 28.8,28.8 28.2,28.8zM30.2,28.2 30.8,28.2 30.8,28.8 30.2,28.8zM31.2,28.2 31.8,28.2 31.8,28.8 31.2,28.8zM32.2,28.2 32.8,28.2 32.8,28.8 32.2,28.8zM33.2,28.2 33.8,28.2 33.8,28.8 33.2,28.8zM34.2,28.2 34.8,28.2 34.8,28.8 34.2,28.8zM35.2,28.2 35.8,28.2 35.8,28.8 35.2,28.8zM36.2,28.2 36.8,28.2 36.8,28.8 36.2,28.8zM38.2,28.2 38.8,28.2 38.8,28.8 38.2,28.8zM39.2,28.2 39.8,28.2 39.8,28.8 39.2,28.8zM40.2,28.2 40.8,28.2 40.8,28.8 40.2,28.8zM41.2,28.2 41.8,28.2 41.8,28.8 41.2,28.8zM44.2,28.2 44.8,28.2 44.8,28.8 44.2,28.8zM46.2,28.2 46.8,28.2 46.8,28.8 46.2,28.8zM48.2,28.2 48.8,28.2 48.8,28.8 48.2,28.8zM50.2,28.2 50.8,28.2 50.8,28.8 50.2,28.8zM52.2,28.2 52.8,28.2 52.8,28.8 52.2,28.8zM4.2,29.2 4.8,29.2 4.8,29.8 4.2,29.8zM6.2,29.2 6.8,29.2 6.8,29.8 6.2,29.8zM7.2,29.2 7.8,29.2 7.8,29.8 7.2,29.8zM8.2,29.2 8.8,29.2 8.8,29.8 8.2,29.8zM12.2,29.2 12.8,29.2 12.8,29.8 12.2,29.8zM20.2,29.2 20.8,29.2 20.8,29.8 20.2,29.8zM21.2,29.2 21.8,29.2 21.8,29.8 21.2,29.8zM26.2,29.2 26.8,29.2 26.8,29.8 26.2,29.8zM30.2,29.2 30.8,29.2 30.8,29.8 30.2,29.8zM36.2,29.2 36.8,29.2 36.8,29.8 36.2,29.8zM41.2,29.2 41.8,29.2 41.8,29.8 41.2,29.8zM43.2,29.2 43.8,29.2 43.8,29.8 43.2,29.8zM44.2,29.2 44.8,29.2 44.8,29.8 44.2,29.8zM48.2,29.2 48.8,29.2 48.8,29.8 48.2,29.8zM49.2,29.2 49.8,29.2 49.8,29.8 49.2,29.8zM52.2,29.2 52.8,29.2 52.8,29.8 52.2,29.8zM5.2,30.2 5.8,30.2 5.8,30.8 5.2,30.8zM6.2,30.2 6.8,30.2 6.8,30.8 6.2,30.8zM8.2,30.2 8.8,30.2 8.8,30.8 8.2,30.8zM9.2,30.2 9.8,30.2 9.8,30.8 9.2,30.8zM10.2,30.2 10.8,30.2 10.8,30.8 10.2,30.8zM11.2,30.2 11.8,30.2 11.8,30.8 11.2,30.8zM12.2,30.2 12.8,30.2 12.8,30.8 12.2,30.8zM13.2,30.2 13.8,30.2 13.8,30.8 13.2,30.8zM14.2,30.2 14.8,30.2 14.8,30.8 14.2,30.8zM18.2,30.2 18.8,30.2 18.8,30.8 18.2,30.8zM19.2,30.2 19.8,30.2 19.8,30.8 19.2,30.8zM23.2,30.2 23.8,30.2 23.8,30.8 23.2,30.8zM24.2,30.2 24.8,30.2 24.8,30.8 24.2,30.8zM26.2,30.2 26.8,30.2 26.8,30.8 26.2,30.8zM27.2,30.2 27.8,30.2 27.8,30.8 27.2,30.8zM28.2,30.2 28.8,30.2 28.8,30.8 28.2,30.8zM29.2,30.2 29.8,30.2 29.8,30.8 29.2,30.8zM30.2,30.2 30.8,30.2 30.8,30.8 30.2,30.8zM32.2,30.2 32.8,30.2 32.8,30.8 32.2,30.8zM35.2,30.2 35.8,30.2 35.8,30.8 35.2,30.8zM36.2,30.2 36.8,30.2 36.8,30.8 36.2,30.8zM37.2,30.2 37.8,30.2 37.8,30.8 37.2,30.8zM38.2,30.2 38.8,30.2 38.8,30.8 38.2,30.8zM39.2,30.2 39.8,30.2 39.8,30.8 39.2,30.8zM42.2,30.2 42.8,30.2 42.8,30.8 42.2,30.8zM43.2,30.2 43.8,30.2 43.8,30.8 43.2,30.8zM44.2,30.2 44.8,30.2 44.8,30.8 44.2,30.8zM45.2,30.2 45.8,30.2 45.8,30.8 45.2,30.8zM46.2,30.2 46.8,30.2 46.8,30.8 46.2,30.8zM47.2,30.2 47.8,30.2 47.8,30.8 47.2,30.8zM48.2,30.2 48.8,30.2 48.8,30.8 48.2,30.8zM49.2,30.2 49.8,30.2 49.8,30.8 49.2,30.8zM50.2,30.2 50.8,30.2 50.8,30.8 50.2,30.8zM51.2,30.2 51.8,30.2 51.8,30.8 51.2,30.8zM4.2,31.2 4.8,31.2 4.8,31.8 4.2,31.8zM5.2,31.2 5.8,31.2 5.8,31.8 5.2,31.8zM7.2,31.2 7.8,31.2 7.8,31.8 7.2,31.8zM9.2,31.2 9.8,31.2 9.8,31.8 9.2,31.8zM12.2,31.2 12.8,31.2 12.8,31.8 12.2,31.8zM13.2,31.2 13.8,31.2 13.8,31.8 13.2,31.8zM16.2,31.2 16.8,31.2 16.8,31.8 16.2,31.8zM18.2,31.2 18.8,31.2 18.8,31.8 18.2,31.8zM21.2,31.2 21.8,31.2 21.8,31.8 21.2,31.8zM24.2,31.2 24.8,31.2 24.8,31.8 24.2,31.8zM28.2,31.2 28.8,31.2 28.8,31.8 28.2,31.8zM33.2,31.2 33.8,31.2 33.8,31.8 33.2,31.8zM34.2,31.2 34.8,31.2 34.8,31.8 34.2,31.8zM35.2,31.2 35.8,31.2 35.8,31.8 35.2,31.8zM44.2,31.2 44.8,31.2 44.8,31.8 44.2,31.8zM45.2,31.2 45.8,31.2 45.8,31.8 45.2,31.8zM47.2,31.2 47.8,31.2 47.8,31.8 47.2,31.8zM4.2,32.2 4.8,32.2 4.8,32.8 4.2,32.8zM8.2,32.2 8.8,32.2 8.8,32.8 8.2,32.8zM9.2,32.2 9.8,32.2 9.8,32.8 9.2,32.8zM10.2,32.2 10.8,32.2 10.8,32.8 10.2,32.8zM11.2,32.2 11.8,32.2 11.8,32.8 11.2,32.8zM13.2,32.2 13.8,32.2 13.8,32.8 13.2,32.8zM14.2,32.2 14.8,32.2 14.8,32.8 14.2,32.8zM17.2,32.2 17.8,32.2 17.8,32.8 17.2,32.8zM19.2,32.2 19.8,32.2 19.8,32.8 19.2,32.8zM20.2,32.2 20.8,32.2 20.8,32.8 20.2,32.8zM23.2,32.2 23.8,32.2 23.8,32.8 23.2,32.8zM30.2,32.2 30.8,32.2 30.8,32.8 30.2,32.8zM31.2,32.2 31.8,32.2 31.8,32.8 31.2,32.8zM32.2,32.2 32.8,32.2 32.8,32.8 32.2,32.8zM33.2,32.2 33.8,32.2 33.8,32.8 33.2,32.8zM37.2,32.2 37.8,32.2 37.8,32.8 37.2,32.8zM38.2,32.2 38.8,32.2 38.8,32.8 38.2,32.8zM39.2,32.2 39.8,32.2 39.8,32.8 39.2,32.8zM40.2,32.2 40.8,32.2 40.8,32.8 40.2,32.8zM41.2,32.2 41.8,32.2 41.8,32.8 41.2,32.8zM42.2,32.2 42.8,32.2 42.8,32.8 42.2,32.8zM43.2,32.2 43.8,32.2 43.8,32.8 43.2,32.8zM44.2,32.2 44.8,32.2 44.8,32.8 44.2,32.8zM45.2,32.2 45.8,32.2 45.8,32.8 45.2,32.8zM46.2,32.2 46.8,32.2 46.8,32.8 46.2,32.8zM47.2,32.2 47.8,32.2 47.8,32.8 47.2,32.8zM49.2,32.2 49.8,32.2 49.8,32.8 49.2,32.8zM50.2,32.2 50.8,32.2 50.8,32.8 50.2,32.8zM51.2,32.2 51.8,32.2 51.8,32.8 51.2,32.8zM4.2,33.2 4.8,33.2 4.8,33.8 4.2,33.8zM5.2,33.2 5.8,33.2 5.8,33.8 5.2,33.8zM8.2,33.2 8.8,33.2 8.8,33.8 8.2,33.8zM9.2,33.2 9.8,33.2 9.8,33.8 9.2,33.8zM11.2,33.2 11.8,33.2 11.8,33.8 11.2,33.8zM13.2,33.2 13.8,33.2 13.8,33.8 13.2,33.8zM16.2,33.2 16.8,33.2 16.8,33.8 16.2,33.8zM17.2,33.2 17.8,33.2 17.8,33.8 17.2,33.8zM20.2,33.2 20.8,33.2 20.8,33.8 20.2,33.8zM21.2,33.2 21.8,33.2 21.8,33.8 21.2,33.8zM24.2,33.2 24.8,33.2 24.8,33.8 24.2,33.8zM26.2,33.2 26.8,33.2 26.8,33.8 26.2,33.8zM29.2,33.2 29.8,33.2 29.8,33.8 29.2,33.8zM30.2,33.2 30.8,33.2 30.8,33.8 30.2,33.8zM35.2,33.2 35.8,33.2 35.8,33.8 35.2,33.8zM37.2,33.2 37.8,33.2 37.8,33.8 37.2,33.8zM40.2,33.2 40.8,33.2 40.8,33.8 40.2,33.8zM44.2,33.2 44.8,33.2 44.8,33.8 44.2,33.8zM45.2,33.2 45.8,33.2 45.8,33.8 45.2,33.8zM46.2,33.2 46.8,33.2 46.8,33.8 46.2,33.8zM50.2,33.2 50.8,33.2 50.8,33.8 50.2,33.8zM51.2,33.2 51.8,33.2 51.8,33.8 51.2,33.8zM5.2,34.2 5.8,34.2 5.8,34.8 5.2,34.8zM10.2,34.2 10.8,34.2 10.8,34.8 10.2,34.8zM12.2,34.2 12.8,34.2 12.8,34.8 12.2,34.8zM15.2,34.2 15.8,34.2 15.8,34.8 15.2,34.8zM17.2,34.2 17.8,34.2 17.8,34.8 17.2,34.8zM18.2,34.2 18.8,34.2 18.8,34.8 18.2,34.8zM19.2,34.2 19.8,34.2 19.8,34.8 19.2,34.8zM20.2,34.2 20.8,34.2 20.8,34.8 20.2,34.8zM24.2,34.2 24.8,34.2 24.8,34.8 24.2,34.8zM25.2,34.2 25.8,34.2 25.8,34.8 25.2,34.8zM26.2,34.2 26.8,34.2 26.8,34.8 26.2,34.8zM28.2,34.2 28.8,34.2 28.8,34.8 28.2,34.8zM30.2,34.2 30.8,34.2 30.8,34.8 30.2,34.8zM31.2,34.2 31.8,34.2 31.8,34.8 31.2,34.8zM32.2,34.2 32.8,34.2 32.8,34.8 32.2,34.8zM37.2,34.2 37.8,34.2 37.8,34.8 37.2,34.8zM38.2,34.2 38.8,34.2 38.8,34.8 38.2,34.8zM39.2,34.2 39.8,34.2 39.8,34.8 39.2,34.8zM40.2,34.2 40.8,34.2 40.8,34.8 40.2,34.8zM42.2,34.2 42.8,34.2 42.8,34.8 42.2,34.8zM44.2,34.2 44.8,34.2 44.8,34.8 44.2,34.8zM45.2,34.2 45.8,34.2 45.8,34.8 45.2,34.8zM46.2,34.2 46.8,34.2 46.8,34.8 46.2,34.8zM47.2,34.2 47.8,34.2 47.8,34.8 47.2,34.8zM51.2,34.2 51.8,34.2 51.8,34.8 51.2,34.8zM52.2,34.2 52.8,34.2 52.8,34.8 52.2,34.8zM6.2,35.2 6.8,35.2 6.8,35.8 6.2,35.8zM8.2,35.2 8.8,35.2 8.8,35.8 8.2,35.8zM9.2,35.2 9.8,35.2 9.8,35.8 9.2,35.8zM12.2,35.2 12.8,35.2 12.8,35.8 12.2,35.8zM13.2,35.2 13.8,35.2 13.8,35.8 13.2,35.8zM16.2,35.2 16.8,35.2 16.8,35.8 16.2,35.8zM17.2,35.2 17.8,35.2 17.8,35.8 17.2,35.8zM20.2,35.2 20.8,35.2 20.8,35.8 20.2,35.8zM21.2,35.2 21.8,35.2 21.8,35.8 21.2,35.8zM22.2,35.2 22.8,35.2 22.8,35.8 22.2,35.8zM23.2,35.2 23.8,35.2 23.8,35.8 23.2,35.8zM24.2,35.2 24.8,35.2 24.8,35.8 24.2,35.8zM25.2,35.2 25.8,35.2 25.8,35.8 25.2,35.8zM27.2,35.2 27.8,35.2 27.8,35.8 27.2,35.8zM28.2,35.2 28.8,35.2 28.8,35.8 28.2,35.8zM29.2,35.2 29.8,35.2 29.8,35.8 29.2,35.8zM30.2,35.2 30.8,35.2 30.8,35.8 30.2,35.8zM33.2,35.2 33.8,35.2 33.8,35.8 33.2,35.8zM35.2,35.2 35.8,35.2 35.8,35.8 35.2,35.8zM39.2,35.2 39.8,35.2 39.8,35.8 39.2,35.8zM40.2,35.2 40.8,35.2 40.8,35.8 40.2,35.8zM41.2,35.2 41.8,35.2 41.8,35.8 41.2,35.8zM42.2,35.2 42.8,35.2 42.8,35.8 42.2,35.8zM44.2,35.2 44.8,35.2 44.8,35.8 44.2,35.8zM45.2,35.2 45.8,35.2 45.8,35.8 45.2,35.8zM51.2,35.2 51.8,35.2 51.8,35.8 51.2,35.8zM7.2,36.2 7.8,36.2 7.8,36.8 7.2,36.8zM9.2,36.2 9.8,36.2 9.8,36.8 9.2,36.8zM10.2,36.2 10.8,36.2 10.8,36.8 10.2,36.8zM11.2,36.2 11.8,36.2 11.8,36.8 11.2,36.8zM15.2,36.2 15.8,36.2 15.8,36.8 15.2,36.8zM19.2,36.2 19.8,36.2 19.8,36.8 19.2,36.8zM22.2,36.2 22.8,36.2 22.8,36.8 22.2,36.8zM26.2,36.2 26.8,36.2 26.8,36.8 26.2,36.8zM28.2,36.2 28.8,36.2 28.8,36.8 28.2,36.8zM30.2,36.2 30.8,36.2 30.8,36.8 30.2,36.8zM31.2,36.2 31.8,36.2 31.8,36.8 31.2,36.8zM33.2,36.2 33.8,36.2 33.8,36.8 33.2,36.8zM37.2,36.2 37.8,36.2 37.8,36.8 37.2,36.8zM40.2,36.2 40.8,36.2 40.8,36.8 40.2,36.8zM42.2,36.2 42.8,36.2 42.8,36.8 42.2,36.8zM43.2,36.2 43.8,36.2 43.8,36.8 43.2,36.8zM44.2,36.2 44.8,36.2 44.8,36.8 44.2,36.8zM45.2,36.2 45.8,36.2 45.8,36.8 45.2,36.8zM46.2,36.2 46.8,36.2 46.8,36.8 46.2,36.8zM48.2,36.2 48.8,36.2 48.8,36.8 48.2,36.8zM49.2,36.2 49.8,36.2 49.8,36.8 49.2,36.8zM50.2,36.2 50.8,36.2 50.8,36.8 50.2,36.8zM52.2,36.2 52.8,36.2 52.8,36.8 52.2,36.8zM4.2,37.2 4.8,37.2 4.8,37.8 4.2,37.8zM5.2,37.2 5.8,37.2 5.8,37.8 5.2,37.8zM7.2,37.2 7.8,37.2 7.8,37.8 7.2,37.8zM9.2,37.2 9.8,37.2 9.8,37.8 9.2,37.8zM11.2,37.2 11.8,37.2 11.8,37.8 11.2,37.8zM13.2,37.2 13.8,37.2 13.8,37.8 13.2,37.8zM15.2,37.2 15.8,37.2 15.8,37.8 15.2,37.8zM18.2,37.2 18.8,37.2 18.8,37.8 18.2,37.8zM21.2,37.2 21.8,37.2 21.8,37.8 21.2,37.8zM24.2,37.2 24.8,37.2 24.8,37.8 24.2,37.8zM25.2,37.2 25.8,37.2 25.8,37.8 25.2,37.8zM26.2,37.2 26.8,37.2 26.8,37.8 26.2,37.8zM28.2,37.2 28.8,37.2 28.8,37.8 28.2,37.8zM34.2,37.2 34.8,37.2 34.8,37.8 34.2,37.8zM35.2,37.2 35.8,37.2 35.8,37.8 35.2,37.8zM39.2,37.2 39.8,37.2 39.8,37.8 39.2,37.8zM40.2,37.2 40.8,37.2 40.8,37.8 40.2,37.8zM45.2,37.2 45.8,37.2 45.8,37.8 45.2,37.8zM46.2,37.2 46.8,37.2 46.8,37.8 46.2,37.8zM47.2,37.2 47.8,37.2 47.8,37.8 47.2,37.8zM50.2,37.2 50.8,37.2 50.8,37.8 50.2,37.8zM9.2,38.2 9.8,38.2 9.8,38.8 9.2,38.8zM10.2,38.2 10.8,38.2 10.8,38.8 10.2,38.8zM13.2,38.2 13.8,38.2 13.8,38.8 13.2,38.8zM14.2,38.2 14.8,38.2 14.8,38.8 14.2,38.8zM16.2,38.2 16.8,38.2 16.8,38.8 16.2,38.8zM17.2,38.2 17.8,38.2 17.8,38.8 17.2,38.8zM18.2,38.2 18.8,38.2 18.8,38.8 18.2,38.8zM20.2,38.2 20.8,38.2 20.8,38.8 20.2,38.8zM21.2,38.2 21.8,38.2 21.8,38.8 21.2,38.8zM23.2,38.2 23.8,38.2 23.8,38.8 23.2,38.8zM24.2,38.2 24.8,38.2 24.8,38.8 24.2,38.8zM25.2,38.2 25.8,38.2 25.8,38.8 25.2,38.8zM26.2,38.2 26.8,38.2 26.8,38.8 26.2,38.8zM28.2,38.2 28.8,38.2 28.8,38.8 28.2,38.8zM29.2,38.2 29.8,38.2 29.8,38.8 29.2,38.8zM30.2,38.2 30.8,38.2 30.8,38.8 30.2,38.8zM31.2,38.2 31.8,38.2 31.8,38.8 31.2,38.8zM32.2,38.2 32.8,38.2 32.8,38.8 32.2,38.8zM34.2,38.2 34.8,38.2 34.8,38.8 34.2,38.8zM37.2,38.2 37.8,38.2 37.8,38.8 37.2,38.8zM38.2,38.2 38.8,38.2 38.8,38.8 38.2,38.8zM40.2,38.2 40.8,38.2 40.8,38.8 40.2,38.8zM42.2,38.2 42.8,38.2 42.8,38.8 42.2,38.8zM43.2,38.2 43.8,38.2 43.8,38.8 43.2,38.8zM44.2,38.2 44.8,38.2 44.8,38.8 44.2,38.8zM45.2,38.2 45.8,38.2 45.8,38.8 45.2,38.8zM46.2,38.2 46.8,38.2 46.8,38.8 46.2,38.8zM47.2,38.2 47.8,38.2 47.8,38.8 47.2,38.8zM50.2,38.2 50.8,38.2 50.8,38.8 50.2,38.8zM51.2,38.2 51.8,38.2 51.8,38.8 51.2,38.8zM52.2,38.2 52.8,38.2 52.8,38.8 52.2,38.8zM4.2,39.2 4.8,39.2 4.8,39.8 4.2,39.8zM6.2,39.2 6.8,39.2 6.8,39.8 6.2,39.8zM7.2,39.2 7.8,39.2 7.8,39.8 7.2,39.8zM8.2,39.2 8.8,39.2 8.8,39.8 8.2,39.8zM11.2,39.2 11.8,39.2 11.8,39.8 11.2,39.8zM13.2,39.2 13.8,39.2 13.8,39.8 13.2,39.8zM17.2,39.2 17.8,39.2 17.8,39.8 17.2,39.8zM19.2,39.2 19.8,39.2 19.8,39.8 19.2,39.8zM21.2,39.2 21.8,39.2 21.8,39.8 21.2,39.8zM24.2,39.2 24.8,39.2 24.8,39.8 24.2,39.8zM26.2,39.2 26.8,39.2 26.8,39.8 26.2,39.8zM28.2,39.2 28.8,39.2 28.8,39.8 28.2,39.8zM31.2,39.2 31.8,39.2 31.8,39.8 31.2,39.8zM32.2,39.2 32.8,39.2 32.8,39.8 32.2,39.8zM38.2,39.2 38.8,39.2 38.8,39.8 38.2,39.8zM39.2,39.2 39.8,39.2 39.8,39.8 39.2,39.8zM41.2,39.2 41.8,39.2 41.8,39.8 41.2,39.8zM42.2,39.2 42.8,39.2 42.8,39.8 42.2,39.8zM44.2,39.2 44.8,39.2 44.8,39.8 44.2,39.8zM48.2,39.2 48.8,39.2 48.8,39.8 48.2,39.8zM51.2,39.2 51.8,39.2 51.8,39.8 51.2,39.8zM52.2,39.2 52.8,39.2 52.8,39.8 52.2,39.8zM5.2,40.2 5.8,40.2 5.8,40.8 5.2,40.8zM7.2,40.2 7.8,40.2 7.8,40.8 7.2,40.8zM9.2,40.2 9.8,40.2 9.8,40.8 9.2,40.8zM10.2,40.2 10.8,40.2 10.8,40.8 10.2,40.8zM15.2,40.2 15.8,40.2 15.8,40.8 15.2,40.8zM16.2,40.2 16.8,40.2 16.8,40.8 16.2,40.8zM19.2,40.2 19.8,40.2 19.8,40.8 19.2,40.8zM24.2,40.2 24.8,40.2 24.8,40.8 24.2,40.8zM26.2,40.2 26.8,40.2 26.8,40.8 26.2,40.8zM27.2,40.2 27.8,40.2 27.8,40.8 27.2,40.8zM28.2,40.2 28.8,40.2 28.8,40.8 28.2,40.8zM30.2,40.2 30.8,40.2 30.8,40.8 30.2,40.8zM32.2,40.2 32.8,40.2 32.8,40.8 32.2,40.8zM33.2,40.2 33.8,40.2 33.8,40.8 33.2,40.8zM35.2,40.2 35.8,40.2 35.8,40.8 35.2,40.8zM36.2,40.2 36.8,40.2 36.8,40.8 36.2,40.8zM37.2,40.2 37.8,40.2 37.8,40.8 37.2,40.8zM39.2,40.2 39.8,40.2 39.8,40.8 39.2,40.8zM40.2,40.2 40.8,40.2 40.8,40.8 40.2,40.8zM42.2,40.2 42.8,40.2 42.8,40.8 42.2,40.8zM43.2,40.2 43.8,40.2 43.8,40.8 43.2,40.8zM44.2,40.2 44.8,40.2 44.8,40.8 44.2,40.8zM48.2,40.2 48.8,40.2 48.8,40.8 48.2,40.8zM49.2,40.2 49.8,40.2 49.8,40.8 49.2,40.8zM50.2,40.2 50.8,40.2 50.8,40.8 50.2,40.8zM5.2,41.2 5.8,41.2 5.8,41.8 5.2,41.8zM7.2,41.2 7.8,41.2 7.8,41.8 7.2,41.8zM12.2,41.2 12.8,41.2 12.8,41.8 12.2,41.8zM13.2,41.2 13.8,41.2 13.8,41.8 13.2,41.8zM14.2,41.2 14.8,41.2 14.8,41.8 14.2,41.8zM15.2,41.2 15.8,41.2 15.8,41.8 15.2,41.8zM16.2,41.2 16.8,41.2 16.8,41.8 16.2,41.8zM17.2,41.2 17.8,41.2 17.8,41.8 17.2,41.8zM18.2,41.2 18.8,41.2 18.8,41.8 18.2,41.8zM19.2,41.2 19.8,41.2 19.8,41.8 19.2,41.8zM22.2,41.2 22.8,41.2 22.8,41.8 22.2,41.8zM25.2,41.2 25.8,41.2 25.8,41.8 25.2,41.8zM27.2,41.2 27.8,41.2 27.8,41.8 27.2,41.8zM28.2,41.2 28.8,41.2 28.8,41.8 28.2,41.8zM32.2,41.2 32.8,41.2 32.8,41.8 32.2,41.8zM33.2,41.2 33.8,41.2 33.8,41.8 33.2,41.8zM34.2,41.2 34.8,41.2 34.8,41.8 34.2,41.8zM36.2,41.2 36.8,41.2 36.8,41.8 36.2,41.8zM37.2,41.2 37.8,41.2 37.8,41.8 37.2,41.8zM40.2,41.2 40.8,41.2 40.8,41.8 40.2,41.8zM41.2,41.2 41.8,41.2 41.8,41.8 41.2,41.8zM45.2,41.2 45.8,41.2 45.8,41.8 45.2,41.8zM46.2,41.2 46.8,41.2 46.8,41.8 46.2,41.8zM47.2,41.2 47.8,41.2 47.8,41.8 47.2,41.8zM50.2,41.2 50.8,41.2 50.8,41.8 50.2,41.8zM51.2,41.2 51.8,41.2 51.8,41.8 51.2,41.8zM5.2,42.2 5.8,42.2 5.8,42.8 5.2,42.8zM9.2,42.2 9.8,42.2 9.8,42.8 9.2,42.8zM10.2,42.2 10.8,42.2 10.8,42.8 10.2,42.8zM12.2,42.2 12.8,42.2 12.8,42.8 12.2,42.8zM14.2,42.2 14.8,42.2 14.8,42.8 14.2,42.8zM16.2,42.2 16.8,42.2 16.8,42.8 16.2,42.8zM17.2,42.2 17.8,42.2 17.8,42.8 17.2,42.8zM19.2,42.2 19.8,42.2 19.8,42.8 19.2,42.8zM20.2,42.2 20.8,42.2 20.8,42.8 20.2,42.8zM24.2,42.2 24.8,42.2 24.8,42.8 24.2,42.8zM25.2,42.2 25.8,42.2 25.8,42.8 25.2,42.8zM27.2,42.2 27.8,42.2 27.8,42.8 27.2,42.8zM28.2,42.2 28.8,42.2 28.8,42.8 28.2,42.8zM32.2,42.2 32.8,42.2 32.8,42.8 32.2,42.8zM34.2,42.2 34.8,42.2 34.8,42.8 34.2,42.8zM35.2,42.2 35.8,42.2 35.8,42.8 35.2,42.8zM36.2,42.2 36.8,42.2 36.8,42.8 36.2,42.8zM37.2,42.2 37.8,42.2 37.8,42.8 37.2,42.8zM42.2,42.2 42.8,42.2 42.8,42.8 42.2,42.8zM43.2,42.2 43.8,42.2 43.8,42.8 43.2,42.8zM44.2,42.2 44.8,42.2 44.8,42.8 44.2,42.8zM46.2,42.2 46.8,42.2 46.8,42.8 46.2,42.8zM47.2,42.2 47.8,42.2 47.8,42.8 47.2,42.8zM48.2,42.2 48.8,42.2 48.8,42.8 48.2,42.8zM49.2,42.2 49.8,42.2 49.8,42.8 49.2,42.8zM50.2,42.2 50.8,42.2 50.8,42.8 50.2,42.8zM51.2,42.2 51.8,42.2 51.8,42.8 51.2,42.8zM52.2,42.2 52.8,42.2 52.8,42.8 52.2,42.8zM5.2,43.2 5.8,43.2 5.8,43.8 5.2,43.8zM6.2,43.2 6.8,43.2 6.8,43.8 6.2,43.8zM7.2,43.2 7.8,43.2 7.8,43.8 7.2,43.8zM12.2,43.2 12.8,43.2 12.8,43.8 12.2,43.8zM13.2,43.2 13.8,43.2 13.8,43.8 13.2,43.8zM15.2,43.2 15.8,43.2 15.8,43.8 15.2,43.8zM17.2,43.2 17.8,43.2 17.8,43.8 17.2,43.8zM21.2,43.2 21.8,43.2 21.8,43.8 21.2,43.8zM22.2,43.2 22.8,43.2 22.8,43.8 22.2,43.8zM24.2,43.2 24.8,43.2 24.8,43.8 24.2,43.8zM25.2,43.2 25.8,43.2 25.8,43.8 25.2,43.8zM29.2,43.2 29.8,43.2 29.8,43.8 29.2,43.8zM31.2,43.2 31.8,43.2 31.8,43.8 31.2,43.8zM34.2,43.2 34.8,43.2 34.8,43.8 34.2,43.8zM35.2,43.2 35.8,43.2 35.8,43.8 35.2,43.8zM36.2,43.2 36.8,43.2 36.8,43.8 36.2,43.8zM38.2,43.2 38.8,43.2 38.8,43.8 38.2,43.8zM41.2,43.2 41.8,43.2 41.8,43.8 41.2,43.8zM42.2,43.2 42.8,43.2 42.8,43.8 42.2,43.8zM50.2,43.2 50.8,43.2 50.8,43.8 50.2,43.8zM51.2,43.2 51.8,43.2 51.8,43.8 51.2,43.8zM4.2,44.2 4.8,44.2 4.8,44.8 4.2,44.8zM5.2,44.2 5.8,44.2 5.8,44.8 5.2,44.8zM6.2,44.2 6.8,44.2 6.8,44.8 6.2,44.8zM10.2,44.2 10.8,44.2 10.8,44.8 10.2,44.8zM12.2,44.2 12.8,44.2 12.8,44.8 12.2,44.8zM14.2,44.2 14.8,44.2 14.8,44.8 14.2,44.8zM15.2,44.2 15.8,44.2 15.8,44.8 15.2,44.8zM16.2,44.2 16.8,44.2 16.8,44.8 16.2,44.8zM18.2,44.2 18.8,44.2 18.8,44.8 18.2,44.8zM19.2,44.2 19.8,44.2 19.8,44.8 19.2,44.8zM20.2,44.2 20.8,44.2 20.8,44.8 20.2,44.8zM22.2,44.2 22.8,44.2 22.8,44.8 22.2,44.8zM26.2,44.2 26.8,44.2 26.8,44.8 26.2,44.8zM27.2,44.2 27.8,44.2 27.8,44.8 27.2,44.8zM28.2,44.2 28.8,44.2 28.8,44.8 28.2,44.8zM29.2,44.2 29.8,44.2 29.8,44.8 29.2,44.8zM30.2,44.2 30.8,44.2 30.8,44.8 30.2,44.8zM31.2,44.2 31.8,44.2 31.8,44.8 31.2,44.8zM33.2,44.2 33.8,44.2 33.8,44.8 33.2,44.8zM35.2,44.2 35.8,44.2 35.8,44.8 35.2,44.8zM37.2,44.2 37.8,44.2 37.8,44.8 37.2,44.8zM38.2,44.2 38.8,44.2 38.8,44.8 38.2,44.8zM39.2,44.2 39.8,44.2 39.8,44.8 39.2,44.8zM40.2,44.2 40.8,44.2 40.8,44.8 40.2,44.8zM42.2,44.2 42.8,44.2 42.8,44.8 42.2,44.8zM43.2,44.2 43.8,44.2 43.8,44.8 43.2,44.8zM44.2,44.2 44.8,44.2 44.8,44.8 44.2,44.8zM45.2,44.2 45.8,44.2 45.8,44.8 45.2,44.8zM46.2,44.2 46.8,44.2 46.8,44.8 46.2,44.8zM47.2,44.2 47.8,44.2 47.8,44.8 47.2,44.8zM48.2,44.2 48.8,44.2 48.8,44.8 48.2,44.8zM49.2,44.2 49.8,44.2 49.8,44.8 49.2,44.8zM51.2,44.2 51.8,44.2 51.8,44.8 51.2,44.8zM12.2,45.2 12.8,45.2 12.8,45.8 12.2,45.8zM13.2,45.2 13.8,45.2 13.8,45.8 13.2,45.8zM14.2,45.2 14.8,45.2 14.8,45.8 14.2,45.8zM16.2,45.2 16.8,45.2 16.8,45.8 16.2,45.8zM20.2,45.2 20.8,45.2 20.8,45.8 20.2,45.8zM21.2,45.2 21.8,45.2 21.8,45.8 21.2,45.8zM23.2,45.2 23.8,45.2 23.8,45.8 23.2,45.8zM26.2,45.2 26.8,45.2 26.8,45.8 26.2,45.8zM30.2,45.2 30.8,45.2 30.8,45.8 30.2,45.8zM31.2,45.2 31.8,45.2 31.8,45.8 31.2,45.8zM32.2,45.2 32.8,45.2 32.8,45.8 32.2,45.8zM34.2,45.2 34.8,45.2 34.8,45.8 34.2,45.8zM35.2,45.2 35.8,45.2 35.8,45.8 35.2,45.8zM38.2,45.2 38.8,45.2 38.8,45.8 38.2,45.8zM39.2,45.2 39.8,45.2 39.8,45.8 39.2,45.8zM41.2,45.2 41.8,45.2 41.8,45.8 41.2,45.8zM42.2,45.2 42.8,45.2 42.8,45.8 42.2,45.8zM44.2,45.2 44.8,45.2 44.8,45.8 44.2,45.8zM48.2,45.2 48.8,45.2 48.8,45.8 48.2,45.8zM4.2,46.2 4.8,46.2 4.8,46.8 4.2,46.8zM5.2,46.2 5.8,46.2 5.8,46.8 5.2,46.8zM6.2,46.2 6.8,46.2 6.8,46.8 6.2,46.8zM7.2,46.2 7.8,46.2 7.8,46.8 7.2,46.8zM8.2,46.2 8.8,46.2 8.8,46.8 8.2,46.8zM9.2,46.2 9.8,46.2 9.8,46.8 9.2,46.8zM10.2,46.2 10.8,46.2 10.8,46.8 10.2,46.8zM14.2,46.2 14.8,46.2 14.8,46.8 14.2,46.8zM15.2,46.2 15.8,46.2 15.8,46.8 15.2,46.8zM16.2,46.2 16.8,46.2 16.8,46.8 16.2,46.8zM17.2,46.2 17.8,46.2 17.8,46.8 17.2,46.8zM19.2,46.2 19.8,46.2 19.8,46.8 19.2,46.8zM20.2,46.2 20.8,46.2 20.8,46.8 20.2,46.8zM21.2,46.2 21.8,46.2 21.8,46.8 21.2,46.8zM23.2,46.2 23.8,46.2 23.8,46.8 23.2,46.8zM24.2,46.2 24.8,46.2 24.8,46.8 24.2,46.8zM25.2,46.2 25.8,46.2 25.8,46.8 25.2,46.8zM26.2,46.2 26.8,46.2 26.8,46.8 26.2,46.8zM28.2,46.2 28.8,46.2 28.8,46.8 28.2,46.8zM30.2,46.2 30.8,46.2 30.8,46.8 30.2,46.8zM33.2,46.2 33.8,46.2 33.8,46.8 33.2,46.8zM35.2,46.2 35.8,46.2 35.8,46.8 35.2,46.8zM37.2,46.2 37.8,46.2 37.8,46.8 37.2,46.8zM39.2,46.2 39.8,46.2 39.8,46.8 39.2,46.8zM44.2,46.2 44.8,46.2 44.8,46.8 44.2,46.8zM46.2,46.2 46.8,46.2 46.8,46.8 46.2,46.8zM48.2,46.2 48.8,46.2 48.8,46.8 48.2,46.8zM49.2,46.2 49.8,46.2 49.8,46.8 49.2,46.8zM51.2,46.2 51.8,46.2 51.8,46.8 51.2,46.8zM52.2,46.2 52.8,46.2 52.8,46.8 52.2,46.8zM4.2,47.2 4.8,47.2 4.8,47.8 4.2,47.8zM10.2,47.2 10.8,47.2 10.8,47.8 10.2,47.8zM13.2,47.2 13.8,47.2 13.8,47.8 13.2,47.8zM14.2,47.2 14.8,47.2 14.8,47.8 14.2,47.8zM15.2,47.2 15.8,47.2 15.8,47.8 15.2,47.8zM16.2,47.2 16.8,47.2 16.8,47.8 16.2,47.8zM19.2,47.2 19.8,47.2 19.8,47.8 19.2,47.8zM20.2,47.2 20.8,47.2 20.8,47.8 20.2,47.8zM21.2,47.2 21.8,47.2 21.8,47.8 21.2,47.8zM22.2,47.2 22.8,47.2 22.8,47.8 22.2,47.8zM24.2,47.2 24.8,47.2 24.8,47.8 24.2,47.8zM26.2,47.2 26.8,47.2 26.8,47.8 26.2,47.8zM30.2,47.2 30.8,47.2 30.8,47.8 30.2,47.8zM32.2,47.2 32.8,47.2 32.8,47.8 32.2,47.8zM33.2,47.2 33.8,47.2 33.8,47.8 33.2,47.8zM36.2,47.2 36.8,47.2 36.8,47.8 36.2,47.8zM37.2,47.2 37.8,47.2 37.8,47.8 37.2,47.8zM41.2,47.2 41.8,47.2 41.8,47.8 41.2,47.8zM42.2,47.2 42.8,47.2 42.8,47.8 42.2,47.8zM43.2,47.2 43.8,47.2 43.8,47.8 43.2,47.8zM44.2,47.2 44.8,47.2 44.8,47.8 44.2,47.8zM48.2,47.2 48.8,47.2 48.8,47.8 48.2,47.8zM4.2,48.2 4.8,48.2 4.8,48.8 4.2,48.8zM6.2,48.2 6.8,48.2 6.8,48.8 6.2,48.8zM7.2,48.2 7.8,48.2 7.8,48.8 7.2,48.8zM8.2,48.2 8.8,48.2 8.8,48.8 8.2,48.8zM10.2,48.2 10.8,48.2 10.8,48.8 10.2,48.8zM12.2,48.2 12.8,48.2 12.8,48.8 12.2,48.8zM14.2,48.2 14.8,48.2 14.8,48.8 14.2,48.8zM15.2,48.2 15.8,48.2 15.8,48.8 15.2,48.8zM19.2,48.2 19.8,48.2 19.8,48.8 19.2,48.8zM22.2,48.2 22.8,48.2 22.8,48.8 22.2,48.8zM23.2,48.2 23.8,48.2 23.8,48.8 23.2,48.8zM24.2,48.2 24.8,48.2 24.8,48.8 24.2,48.8zM25.2,48.2 25.8,48.2 25.8,48.8 25.2,48.8zM26.2,48.2 26.8,48.2 26.8,48.8 26.2,48.8zM27.2,48.2 27.8,48.2 27.8,48.8 27.2,48.8zM28.2,48.2 28.8,48.2 28.8,48.8 28.2,48.8zM29.2,48.2 29.8,48.2 29.8,48.8 29.2,48.8zM30.2,48.2 30.8,48.2 30.8,48.8 30.2,48.8zM31.2,48.2 31.8,48.2 31.8,48.8 31.2,48.8zM33.2,48.2 33.8,48.2 33.8,48.8 33.2,48.8zM35.2,48.2 35.8,48.2 35.8,48.8 35.2,48.8zM38.2,48.2 38.8,48.2 38.8,48.8 38.2,48.8zM39.2,48.2 39.8,48.2 39.8,48.8 39.2,48.8zM40.2,48.2 40.8,48.2 40.8,48.8 40.2,48.8zM41.2,48.2 41.8,48.2 41.8,48.8 41.2,48.8zM42.2,48.2 42.8,48.2 42.8,48.8 42.2,48.8zM43.2,48.2 43.8,48.2 43.8,48.8 43.2,48.8zM44.2,48.2 44.8,48.2 44.8,48.8 44.2,48.8zM45.2,48.2 45.8,48.2 45.8,48.8 45.2,48.8zM46.2,48.2 46.8,48.2 46.8,48.8 46.2,48.8zM47.2,48.2 47.8,48.2 47.8,48.8 47.2,48.8zM48.2,48.2 48.8,48.2 48.8,48.8 48.2,48.8zM50.2,48.2 50.8,48.2 50.8,48.8 50.2,48.8zM51.2,48.2 51.8,48.2 51.8,48.8 51.2,48.8zM4.2,49.2 4.8,49.2 4.8,49.8 4.2,49.8zM6.2,49.2 6.8,49.2 6.8,49.8 6.2,49.8zM7.2,49.2 7.8,49.2 7.8,49.8 7.2,49.8zM8.2,49.2 8.8,49.2 8.8,49.8 8.2,49.8zM10.2,49.2 10.8,49.2 10.8,49.8 10.2,49.8zM12.2,49.2 12.8,49.2 12.8,49.8 12.2,49.8zM17.2,49.2 17.8,49.2 17.8,49.8 17.2,49.8zM23.2,49.2 23.8,49.2 23.8,49.8 23.2,49.8zM28.2,49.2 28.8,49.2 28.8,49.8 28.2,49.8zM29.2,49.2 29.8,49.2 29.8,49.8 29.2,49.8zM32.2,49.2 32.8,49.2 32.8,49.8 32.2,49.8zM34.2,49.2 34.8,49.2 34.8,49.8 34.2,49.8zM35.2,49.2 35.8,49.2 35.8,49.8 35.2,49.8zM37.2,49.2 37.8,49.2 37.8,49.8 37.2,49.8zM39.2,49.2 39.8,49.2 39.8,49.8 39.2,49.8zM41.2,49.2 41.8,49.2 41.8,49.8 41.2,49.8zM45.2,49.2 45.8,49.2 45.8,49.8 45.2,49.8zM46.2,49.2 46.8,49.2 46.8,49.8 46.2,49.8zM48.2,49.2 48.8,49.2 48.8,49.8 48.2,49.8zM49.2,49.2 49.8,49.2 49.8,49.8 49.2,49.8zM52.2,49.2 52.8,49.2 52.8,49.8 52.2,49.8zM4.2,50.2 4.8,50.2 4.8,50.8 4.2,50.8zM6.2,50.2 6.8,50.2 6.8,50.8 6.2,50.8zM7.2,50.2 7.8,50.2 7.8,50.8 7.2,50.8zM8.2,50.2 8.8,50.2 8.8,50.8 8.2,50.8zM10.2,50.2 10.8,50.2 10.8,50.8 10.2,50.8zM12.2,50.2 12.8,50.2 12.8,50.8 12.2,50.8zM13.2,50.2 13.8,50.2 13.8,50.8 13.2,50.8zM15.2,50.2 15.8,50.2 15.8,50.8 15.2,50.8zM18.2,50.2 18.8,50.2 18.8,50.8 18.2,50.8zM19.2,50.2 19.8,50.2 19.8,50.8 19.2,50.8zM21.2,50.2 21.8,50.2 21.8,50.8 21.2,50.8zM22.2,50.2 22.8,50.2 22.8,50.8 22.2,50.8zM24.2,50.2 24.8,50.2 24.8,50.8 24.2,50.8zM26.2,50.2 26.8,50.2 26.8,50.8 26.2,50.8zM28.2,50.2 28.8,50.2 28.8,50.8 28.2,50.8zM29.2,50.2 29.8,50.2 29.8,50.8 29.2,50.8zM30.2,50.2 30.8,50.2 30.8,50.8 30.2,50.8zM31.2,50.2 31.8,50.2 31.8,50.8 31.2,50.8zM32.2,50.2 32.8,50.2 32.8,50.8 32.2,50.8zM34.2,50.2 34.8,50.2 34.8,50.8 34.2,50.8zM35.2,50.2 35.8,50.2 35.8,50.8 35.2,50.8zM36.2,50.2 36.8,50.2 36.8,50.8 36.2,50.8zM37.2,50.2 37.8,50.2 37.8,50.8 37.2,50.8zM38.2,50.2 38.8,50.2 38.8,50.8 38.2,50.8zM39.2,50.2 39.8,50.2 39.8,50.8 39.2,50.8zM42.2,50.2 42.8,50.2 42.8,50.8 42.2,50.8zM43.2,50.2 43.8,50.2 43.8,50.8 43.2,50.8zM46.2,50.2 46.8,50.2 46.8,50.8 46.2,50.8zM47.2,50.2 47.8,50.2 47.8,50.8 47.2,50.8zM49.2,50.2 49.8,50.2 49.8,50.8 49.2,50.8zM51.2,50.2 51.8,50.2 51.8,50.8 51.2,50.8zM52.2,50.2 52.8,50.2 52.8,50.8 52.2,50.8zM4.2,51.2 4.8,51.2 4.8,51.8 4.2,51.8zM10.2,51.2 10.8,51.2 10.8,51.8 10.2,51.8zM13.2,51.2 13.8,51.2 13.8,51.8 13.2,51.8zM14.2,51.2 14.8,51.2 14.8,51.8 14.2,51.8zM17.2,51.2 17.8,51.2 17.8,51.8 17.2,51.8zM19.2,51.2 19.8,51.2 19.8,51.8 19.2,51.8zM23.2,51.2 23.8,51.2 23.8,51.8 23.2,51.8zM24.2,51.2 24.8,51.2 24.8,51.8 24.2,51.8zM25.2,51.2 25.8,51.2 25.8,51.8 25.2,51.8zM26.2,51.2 26.8,51.2 26.8,51.8 26.2,51.8zM28.2,51.2 28.8,51.2 28.8,51.8 28.2,51.8zM30.2,51.2 30.8,51.2 30.8,51.8 30.2,51.8zM36.2,51.2 36.8,51.2 36.8,51.8 36.2,51.8zM38.2,51.2 38.8,51.2 38.8,51.8 38.2,51.8zM41.2,51.2 41.8,51.2 41.8,51.8 41.2,51.8zM45.2,51.2 45.8,51.2 45.8,51.8 45.2,51.8zM46.2,51.2 46.8,51.2 46.8,51.8 46.2,51.8zM47.2,51.2 47.8,51.2 47.8,51.8 47.2,51.8zM48.2,51.2 48.8,51.2 48.8,51.8 48.2,51.8zM52.2,51.2 52.8,51.2 52.8,51.8 52.2,51.8zM4.2,52.2 4.8,52.2 4.8,52.8 4.2,52.8zM5.2,52.2 5.8,52.2 5.8,52.8 5.2,52.8zM6.2,52.2 6.8,52.2 6.8,52.8 6.2,52.8zM7.2,52.2 7.8,52.2 7.8,52.8 7.2,52.8zM8.2,52.2 8.8,52.2 8.8,52.8 8.2,52.8zM9.2,52.2 9.8,52.2 9.8,52.8 9.2,52.8zM10.2,52.2 10.8,52.2 10.8,52.8 10.2,52.8zM13.2,52.2 13.8,52.2 13.8,52.8 13.2,52.8zM15.2,52.2 15.8,52.2 15.8,52.8 15.2,52.8zM16.2,52.2 16.8,52.2 16.8,52.8 16.2,52.8zM19.2,52.2 19.8,52.2 19.8,52.8 19.2,52.8zM22.2,52.2 22.8,52.2 22.8,52.8 22.2,52.8zM24.2,52.2 24.8,52.2 24.8,52.8 24.2,52.8zM25.2,52.2 25.8,52.2 25.8,52.8 25.2,52.8zM26.2,52.2 26.8,52.2 26.8,52.8 26.2,52.8zM29.2,52.2 29.8,52.2 29.8,52.8 29.2,52.8zM30.2,52.2 30.8,52.2 30.8,52.8 30.2,52.8zM40.2,52.2 40.8,52.2 40.8,52.8 40.2,52.8zM42.2,52.2 42.8,52.2 42.8,52.8 42.2,52.8zM43.2,52.2 43.8,52.2 43.8,52.8 43.2,52.8zM47.2,52.2 47.8,52.2 47.8,52.8 47.2,52.8zM48.2,52.2 48.8,52.2 48.8,52.8 48.2,52.8zM50.2,52.2 50.8,52.2 50.8,52.8 50.2,52.8zM51.2,52.2 51.8,52.2 51.8,52.8 51.2,52.8zM52.2,52.2 52.8,52.2 52.8,52.8 52.2,52.8z" stroke-width=".3" stroke-linejoin="round" stroke="#000000" fill="#000000"/></svg>