<svg viewBox="0 0 49 49" xmlns="http://www.w3.org/2000/svg"><rect width="49px" height="49px" fill="#ffffff"/><path d="M4.2,4.2 4.8,4.2 4.8,4.8 4.2,4.8zM5.2,4.2 5.8,4.2 5.8,4.8 5.2,4.8zM6.2,4.2 6.8,4.2 6.8,4.8 6.2,4.8zM7.2,4.2 7.8,4.2 7.8,4.8 7.2,4.8zM8.2,4.2 8.8,4.2 8.8,4.8 8.2,4.8zM9.2,4.2 9.8,4.2 9.8,4.8 9.2,4.8zM10.2,4.2 10.8,4.2 10.8,4.8 10.2,4.8zM12.2,4.2 12.8,4.2 12.8,4.8 12.2,4.8zM16.2,4.2 16.8,4.2 16.8,4.8 16.2,4.8zM20.2,4.2 20.8,4.2 20.8,4.8 20.2,4.8zM22.2,4.2 22.8,4.2 22.8,4.8 22.2,4.8zM23.2,4.2 23.8,4.2 23.8,4.8 23.2,4.8zM24.2,4.2 24.8,4.2 24.8,4.8 24.2,4.8zM25.2,4.2 25.8,4.2 25.8,4.8 25.2,4.8zM28.2,4.2 28.8,4.2 28.8,4.8 28.2,4.8zM29.2,4.2 29.8,4.2 29.8,4.8 29.2,4.8zM30.2,4.2 30.8,4.2 30.8,4.8 30.2,4.8zM31.2,4.2 31.8,4.2 31.8,4.8 31.2,4.8zM34.2,4.2 34.8,4.2 34.8,4.8 34.2,4.8zM35.2,4.2 35.8,4.2 35.8,4.8 35.2,4.8zM38.2,4.2 38.8,4.2 38.8,4.8 38.2,4.8zM39.2,4.2 39.8,4.2 39.8,4.8 39.2,4.8zM40.2,4.2 40.8,4.2 40.8,4.8 40.2,4.8zM41.2,4.2 41.8,4.2 41.8,4.8 41.2,4.8zM42.2,4.2 42.8,4.2 42.8,4.8 42.2,4.8zM43.2,4.2 43.8,4.2 43.8,4.8 43.2,4.8zM44.2,4.2 44.8,4.2 44.8,4.8 44.2,4.8zM4.2,5.2 4.8,5.2 4.8,5.8 4.2,5.8zM10.2,5.2 10.8,5.2 10.8,5.8 10.2,5.8zM13.2,5.2 13.8,5.2 13.8,5.8 13.2,5.8zM17.2,5.2 17.8,5.2 17.8,5.8 17.2,5.8zM19.2,5.2 19.8,5.2 19.8,5.8 19.2,5.8zM22.2,5.2 22.8,5.2 22.8,5.8 22.2,5.8zM23.2,5.2 23.8,5.2 23.8,5.8 23.2,5.8zM24.2,5.2 24.8,5.2 24.8,5.8 24.2,5.8zM27.2,5.2 27.8,5.2 27.8,5.8 27.2,5.8zM30.2,5.2 30.8,5.2 30.8,5.8 30.2,5.8zM31.2,5.2 31.8,5.2 31.8,5.8 31.2,5.8zM33.2,5.2 33.8,5.2 33.8,5.8 33.2,5.8zM35.2,5.2 35.8,5.2 35.8,5.8 35.2,5.8zM38.2,5.2 38.8,5.2 38.8,5.8 38.2,5.8zM44.2,5.2 44.8,5.2 44.8,5.8 44.2,5.8zM4.2,6.2 4.8,6.2 4.8,6.8 4.2,6.8zM6.2,6.2 6.8,6.2 6.8,6.8 6.2,6.8zM7.2,6.2 7.8,6.2 7.8,6.8 7.2,6.8zM8.2,6.2 8.8,6.2 8.8,6.8 8.2,6.8zM10.2,6.2 10.8,6.2 10.8,6.8 10.2,6.8zM13.2,6.2 13.8,6.2 13.8,6.8 13.2,6.8zM14.2,6.2 14.8,6.2 14.8,6.8 14.2,6.8zM15.2,6.2 15.8,6.2 15.8,6.8 15.2,6.8zM18.2,6.2 18.8,6.2 18.8,6.8 18.2,6.8zM19.2,6.2 19.8,6.2 19.8,6.8 19.2,6.8zM21.2,6.2 21.8,6.2 21.8,6.8 21.2,6.8zM24.2,6.2 24.8,6.2 24.8,6.8 24.2,6.8zM25.2,6.2 25.8,6.2 25.8,6.8 25.2,6.8zM27.2,6.2 27.8,6.2 27.8,6.8 27.2,6.8zM29.2,6.2 29.8,6.2 29.8,6.8 29.2,6.8zM30.2,6.2 30.8,6.2 30.8,6.8 30.2,6.8zM38.2,6.2 38.8,6.2 38.8,6.8 38.2,6.8zM40.2,6.2 40.8,6.2 40.8,6.8 40.2,6.8zM41.2,6.2 41.8,6.2 41.8,6.8 41.2,6.8zM42.2,6.2 42.8,6.2 42.8,6.8 42.2,6.8zM44.2,6.2 44.8,6.2 44.8,6.8 44.2,6.8zM4.2,7.2 4.8,7.2 4.8,7.8 4.2,7.8zM6.2,7.2 6.8,7.2 6.8,7.8 6.2,7.8zM7.2,7.2 7.8,7.2 7.8,7.8 7.2,7.8zM8.2,7.2 8.8,7.2 8.8,7.8 8.2,7.8zM10.2,7.2 10.8,7.2 10.8,7.8 10.2,7.8zM12.2,7.2 12.8,7.2 12.8,7.8 12.2,7.8zM13.2,7.2 13.8,7.2 13.8,7.8 13.2,7.8zM14.2,7.2 14.8,7.2 14.8,7.8 14.2,7.8zM16.2,7.2 16.8,7.2 16.8,7.8 16.2,7.8zM17.2,7.2 17.8,7.2 17.8,7.8 17.2,7.8zM20.2,7.2 20.8,7.2 20.8,7.8 20.2,7.8zM21.2,7.2 21.8,7.2 21.8,7.8 21.2,7.8zM22.2,7.2 22.8,7.2 22.8,7.8 22.2,7.8zM29.2,7.2 29.8,7.2 29.8,7.8 29.2,7.8zM30.2,7.2 30.8,7.2 30.8,7.8 30.2,7.8zM33.2,7.2 33.8,7.2 33.8,7.8 33.2,7.8zM38.2,7.2 38.8,7.2 38.8,7.8 38.2,7.8zM40.2,7.2 40.8,7.2 40.8,7.8 40.2,7.8zM41.2,7.2 41.8,7.2 41.8,7.8 41.2,7.8zM42.2,7.2 42.8,7.2 42.8,7.8 42.2,7.8zM44.2,7.2 44.8,7.2 44.8,7.8 44.2,7.8zM4.2,8.2 4.8,8.2 4.8,8.8 4.2,8.8zM6.2,8.2 6.8,8.2 6.8,8.8 6.2,8.8zM7.2,8.2 7.8,8.2 7.8,8.8 7.2,8.8zM8.2,8.2 8.8,8.2 8.8,8.8 8.2,8.8zM10.2,8.2 10.8,8.2 10.8,8.8 10.2,8.8zM14.2,8.2 14.8,8.2 14.8,8.8 14.2,8.8zM16.2,8.2 16.8,8.2 16.8,8.8 16.2,8.8zM18.2,8.2 18.8,8.2 18.8,8.8 18.2,8.8zM19.2,8.2 19.8,8.2 19.8,8.8 19.2,8.8zM20.2,8.2 20.8,8.2 20.8,8.8 20.2,8.8zM21.2,8.2 21.8,8.2 21.8,8.8 21.2,8.8zM24.2,8.2 24.8,8.2 24.8,8.8 24.2,8.8zM26.2,8.2 26.8,8.2 26.8,8.8 26.2,8.8zM27.2,8.2 27.8,8.2 27.8,8.8 27.2,8.8zM30.2,8.2 30.8,8.2 30.8,8.8 30.2,8.8zM31.2,8.2 31.8,8.2 31.8,8.8 31.2,8.8zM32.2,8.2 32.8,8.2 32.8,8.8 32.2,8.8zM35.2,8.2 35.8,8.2 35.8,8.8 35.2,8.8zM38.2,8.2 38.8,8.2 38.8,8.8 38.2,8.8zM40.2,8.2 40.8,8.2 40.8,8.8 40.2,8.8zM41.2,8.2 41.8,8.2 41.8,8.8 41.2,8.8zM42.2,8.2 42.8,8.2 42.8,8.8 42.2,8.8zM44.2,8.2 44.8,8.2 44.8,8.8 44.2,8.8zM4.2,9.2 4.8,9.2 4.8,9.8 4.2,9.8zM10.2,9.2 10.8,9.2 10.8,9.8 10.2,9.8zM14.2,9.2 14.8,9.2 14.8,9.8 14.2,9.8zM15.2,9.2 15.8,9.2 15.8,9.8 15.2,9.8zM17.2,9.2 17.8,9.2 17.8,9.8 17.2,9.8zM18.2,9.2 18.8,9.2 18.8,9.8 18.2,9.8zM24.2,9.2 24.8,9.2 24.8,9.8 24.2,9.8zM26.2,9.2 26.8,9.2 26.8,9.8 26.2,9.8zM29.2,9.2 29.8,9.2 29.8,9.8 29.2,9.8zM31.2,9.2 31.8,9.2 31.8,9.8 31.2,9.8zM34.2,9.2 34.8,9.2 34.8,9.8 34.2,9.8zM35.2,9.2 35.8,9.2 35.8,9.8 35.2,9.8zM38.2,9.2 38.8,9.2 38.8,9.8 38.2,9.8zM44.2,9.2 44.8,9.2 44.8,9.8 44.2,9.8zM4.2,10.2 4.8,10.2 4.8,10.8 4.2,10.8zM5.2,10.2 5.8,10.2 5.8,10.8 5.2,10.8zM6.2,10.2 6.8,10.2 6.8,10.8 6.2,10.8zM7.2,10.2 7.8,10.2 7.8,10.8 7.2,10.8zM8.2,10.2 8.8,10.2 8.8,10.8 8.2,10.8zM9.2,10.2 9.8,10.2 9.8,10.8 9.2,10.8zM10.2,10.2 10.8,10.2 10.8,10.8 10.2,10.8zM12.2,10.2 12.8,10.2 12.8,10.8 12.2,10.8zM14.2,10.2 14.8,10.2 14.8,10.8 14.2,10.8zM16.2,10.2 16.8,10.2 16.8,10.8 16.2,10.8zM18.2,10.2 18.8,10.2 18.8,10.8 18.2,10.8zM20.2,10.2 20.8,10.2 20.8,10.8 20.2,10.8zM22.2,10.2 22.8,10.2 22.8,10.8 22.2,10.8zM24.2,10.2 24.8,10.2 24.8,10.8 24.2,10.8zM26.2,10.2 26.8,10.2 26.8,10.8 26.2,10.8zM28.2,10.2 28.8,10.2 28.8,10.8 28.2,10.8zM30.2,10.2 30.8,10.2 30.8,10.8 30.2,10.8zM32.2,10.2 32.8,10.2 32.8,10.8 32.2,10.8zM34.2,10.2 34.8,10.2 34.8,10.8 34.2,10.8zM36.2,10.2 36.8,10.2 36.8,10.8 36.2,10.8zM38.2,10.2 38.8,10.2 38.8,10.8 38.2,10.8zM39.2,10.2 39.8,10.2 39.8,10.8 39.2,10.8zM40.2,10.2 40.8,10.2 40.8,10.8 40.2,10.8zM41.2,10.2 41.8,10.2 41.8,10.8 41.2,10.8zM42.2,10.2 42.8,10.2 42.8,10.8 42.2,10.8zM43.2,10.2 43.8,10.2 43.8,10.8 43.2,10.8zM44.2,10.2 44.8,10.2 44.8,10.8 44.2,10.8zM13.2,11.2 13.8,11.2 13.8,11.8 13.2,11.8zM15.2,11.2 15.8,11.2 15.8,11.8 15.2,11.8zM16.2,11.2 16.8,11.2 16.8,11.8 16.2,11.8zM17.2,11.2 17.8,11.2 17.8,11.8 17.2,11.8zM22.2,11.2 22.8,11.2 22.8,11.8 22.2,11.8zM27.2,11.2 27.8,11.2 27.8,11.8 27.2,11.8zM29.2,11.2 29.8,11.2 29.8,11.8 29.2,11.8zM32.2,11.2 32.8,11.2 32.8,11.8 32.2,11.8zM33.2,11.2 33.8,11.2 33.8,11.8 33.2,11.8zM34.2,11.2 34.8,11.2 34.8,11.8 34.2,11.8zM6.2,12.2 6.8,12.2 6.8,12.8 6.2,12.8zM8.2,12.2 8.8,12.2 8.8,12.8 8.2,12.8zM9.2,12.2 9.8,12.2 9.8,12.8 9.2,12.8zM10.2,12.2 10.8,12.2 10.8,12.8 10.2,12.8zM12.2,12.2 12.8,12.2 12.8,12.8 12.2,12.8zM13.2,12.2 13.8,12.2 13.8,12.8 13.2,12.8zM17.2,12.2 17.8,12.2 17.8,12.8 17.2,12.8zM24.2,12.2 24.8,12.2 24.8,12.8 24.2,12.8zM26.2,12.2 26.8,12.2 26.8,12.8 26.2,12.8zM27.2,12.2 27.8,12.2 27.8,12.8 27.2,12.8zM28.2,12.2 28.8,12.2 28.8,12.8 28.2,12.8zM29.2,12.2 29.8,12.2 29.8,12.8 29.2,12.8zM30.2,12.2 30.8,12.2 30.8,12.8 30.2,12.8zM32.2,12.2 32.8,12.2 32.8,12.8 32.2,12.8zM33.2,12.2 33.8,12.2 33.8,12.8 33.2,12.8zM36.2,12.2 36.8,12.2 36.8,12.8 36.2,12.8zM37.2,12.2 37.8,12.2 37.8,12.8 37.2,12.8zM41.2,12.2 41.8,12.2 41.8,12.8 41.2,12.8zM44.2,12.2 44.8,12.2 44.8,12.8 44.2,12.8zM4.2,13.2 4.8,13.2 4.8,13.8 4.2,13.8zM5.2,13.2 5.8,13.2 5.8,13.8 5.2,13.8zM6.2,13.2 6.8,13.2 6.8,13.8 6.2,13.8zM8.2,13.2 8.8,13.2 8.8,13.8 8.2,13.8zM9.2,13.2 9.8,13.2 9.8,13.8 9.2,13.8zM11.2,13.2 11.8,13.2 11.8,13.8 11.2,13.8zM12.2,13.2 12.8,13.2 12.8,13.8 12.2,13.8zM15.2,13.2 15.8,13.2 15.8,13.8 15.2,13.8zM16.2,13.2 16.8,13.2 16.8,13.8 16.2,13.8zM18.2,13.2 18.8,13.2 18.8,13.8 18.2,13.8zM20.2,13.2 20.8,13.2 20.8,13.8 20.2,13.8zM21.2,13.2 21.8,13.2 21.8,13.8 21.2,13.8zM25.2,13.2 25.8,13.2 25.8,13.8 25.2,13.8zM26.2,13.2 26.8,13.2 26.8,13.8 26.2,13.8zM27.2,13.2 27.8,13.2 27.8,13.8 27.2,13.8zM30.2,13.2 30.8,13.2 30.8,13.8 30.2,13.8zM32.2,13.2 32.8,13.2 32.8,13.8 32.2,13.8zM33.2,13.2 33.8,13.2 33.8,13.8 33.2,13.8zM36.2,13.2 36.8,13.2 36.8,13.8 36.2,13.8zM37.2,13.2 37.8,13.2 37.8,13.8 37.2,13.8zM38.2,13.2 38.8,13.2 38.8,13.8 38.2,13.8zM41.2,13.2 41.8,13.2 41.8,13.8 41.2,13.8zM42.2,13.2 42.8,13.2 42.8,13.8 42.2,13.8zM44.2,13.2 44.8,13.2 44.8,13.8 44.2,13.8zM6.2,14.2 6.8,14.2 6.8,14.8 6.2,14.8zM7.2,14.2 7.8,14.2 7.8,14.8 7.2,14.8zM8.2,14.2 8.8,14.2 8.8,14.8 8.2,14.8zM10.2,14.2 10.8,14.2 10.8,14.8 10.2,14.8zM11.2,14.2 11.8,14.2 11.8,14.8 11.2,14.8zM13.2,14.2 13.8,14.2 13.8,14.8 13.2,14.8zM14.2,14.2 14.8,14.2 14.8,14.8 14.2,14.8zM19.2,14.2 19.8,14.2 19.8,14.8 19.2,14.8zM21.2,14.2 21.8,14.2 21.8,14.8 21.2,14.8zM24.2,14.2 24.8,14.2 24.8,14.8 24.2,14.8zM26.2,14.2 26.8,14.2 26.8,14.8 26.2,14.8zM29.2,14.2 29.8,14.2 29.8,14.8 29.2,14.8zM37.2,14.2 37.8,14.2 37.8,14.8 37.2,14.8zM39.2,14.2 39.8,14.2 39.8,14.8 39.2,14.8zM40.2,14.2 40.8,14.2 40.8,14.8 40.2,14.8zM42.2,14.2 42.8,14.2 42.8,14.8 42.2,14.8zM43.2,14.2 43.8,14.2 43.8,14.8 43.2,14.8zM44.2,14.2 44.8,14.2 44.8,14.8 44.2,14.8zM4.2,15.2 4.8,15.2 4.8,15.8 4.2,15.8zM5.2,15.2 5.8,15.2 5.8,15.8 5.2,15.8zM6.2,15.2 6.8,15.2 6.8,15.8 6.2,15.8zM13.2,15.2 13.8,15.2 13.8,15.8 13.2,15.8zM14.2,15.2 14.8,15.2 14.8,15.8 14.2,15.8zM15.2,15.2 15.8,15.2 15.8,15.8 15.2,15.8zM16.2,15.2 16.8,15.2 16.8,15.8 16.2,15.8zM19.2,15.2 19.8,15.2 19.8,15.8 19.2,15.8zM20.2,15.2 20.8,15.2 20.8,15.8 20.2,15.8zM21.2,15.2 21.8,15.2 21.8,15.8 21.2,15.8zM24.2,15.2 24.8,15.2 24.8,15.8 24.2,15.8zM25.2,15.2 25.8,15.2 25.8,15.8 25.2,15.8zM26.2,15.2 26.8,15.2 26.8,15.8 26.2,15.8zM27.2,15.2 27.8,15.2 27.8,15.8 27.2,15.8zM29.2,15.2 29.8,15.2 29.8,15.8 29.2,15.8zM30.2,15.2 30.8,15.2 30.8,15.8 30.2,15.8zM31.2,15.2 31.8,15.2 31.8,15.8 31.2,15.8zM32.2,15.2 32.8,15.2 32.8,15.8 32.2,15.8zM33.2,15.2 33.8,15.2 33.8,15.8 33.2,15.8zM34.2,15.2 34.8,15.2 34.8,15.8 34.2,15.8zM36.2,15.2 36.8,15.2 36.8,15.8 36.2,15.8zM38.2,15.2 38.8,15.2 38.8,15.8 38.2,15.8zM39.2,15.2 39.8,15.2 39.8,15.8 39.2,15.8zM40.2,15.2 40.8,15.2 40.8,15.8 40.2,15.8zM5.2,16.2 5.8,16.2 5.8,16.8 5.2,16.8zM8.2,16.2 8.8,16.2 8.8,16.8 8.2,16.8zM10.2,16.2 10.8,16.2 10.8,16.8 10.2,16.8zM13.2,16.2 13.8,16.2 13.8,16.8 13.2,16.8zM16.2,16.2 16.8,16.2 16.8,16.8 16.2,16.8zM18.2,16.2 18.8,16.2 18.8,16.8 18.2,16.8zM20.2,16.2 20.8,16.2 20.8,16.8 20.2,16.8zM21.2,16.2 21.8,16.2 21.8,16.8 21.2,16.8zM26.2,16.2 26.8,16.2 26.8,16.8 26.2,16.8zM28.2,16.2 28.8,16.2 28.8,16.8 28.2,16.8zM29.2,16.2 29.8,16.2 29.8,16.8 29.2,16.8zM30.2,16.2 30.8,16.2 30.8,16.8 30.2,16.8zM33.2,16.2 33.8,16.2 33.8,16.8 33.2,16.8zM35.2,16.2 35.8,16.2 35.8,16.8 35.2,16.8zM36.2,16.2 36.8,16.2 36.8,16.8 36.2,16.8zM38.2,16.2 38.8,16.2 38.8,16.8 38.2,16.8zM41.2,16.2 41.8,16.2 41.8,16.8 41.2,16.8zM44.2,16.2 44.8,16.2 44.8,16.8 44.2,16.8zM4.2,17.2 4.8,17.2 4.8,17.8 4.2,17.8zM5.2,17.2 5.8,17.2 5.8,17.8 5.2,17.8zM6.2,17.2 6.8,17.2 6.8,17.8 6.2,17.8zM8.2,17.2 8.8,17.2 8.8,17.8 8.2,17.8zM9.2,17.2 9.8,17.2 9.8,17.8 9.2,17.8zM11.2,17.2 11.8,17.2 11.8,17.8 11.2,17.8zM12.2,17.2 12.8,17.2 12.8,17.8 12.2,17.8zM14.2,17.2 14.8,17.2 14.8,17.8 14.2,17.8zM17.2,17.2 17.8,17.2 17.8,17.8 17.2,17.8zM21.2,17.2 21.8,17.2 21.8,17.8 21.2,17.8zM23.2,17.2 23.8,17.2 23.8,17.8 23.2,17.8zM29.2,17.2 29.8,17.2 29.8,17.8 29.2,17.8zM30.2,17.2 30.8,17.2 30.8,17.8 30.2,17.8zM31.2,17.2 31.8,17.2 31.8,17.8 31.2,17.8zM34.2,17.2 34.8,17.2 34.8,17.8 34.2,17.8zM35.2,17.2 35.8,17.2 35.8,17.8 35.2,17.8zM36.2,17.2 36.8,17.2 36.8,17.8 36.2,17.8zM37.2,17.2 37.8,17.2 37.8,17.8 37.2,17.8zM41.2,17.2 41.8,17.2 41.8,17.8 41.2,17.8zM43.2,17.2 43.8,17.2 43.8,17.8 43.2,17.8zM44.2,17.2 44.8,17.2 44.8,17.8 44.2,17.8zM6.2,18.2 6.8,18.2 6.8,18.8 6.2,18.8zM7.2,18.2 7.8,18.2 7.8,18.8 7.2,18.8zM10.2,18.2 10.8,18.2 10.8,18.8 10.2,18.8zM12.2,18.2 12.8,18.2 12.8,18.8 12.2,18.8zM14.2,18.2 14.8,18.2 14.8,18.8 14.2,18.8zM16.2,18.2 16.8,18.2 16.8,18.8 16.2,18.8zM17.2,18.2 17.8,18.2 17.8,18.8 17.2,18.8zM21.2,18.2 21.8,18.2 21.8,18.8 21.2,18.8zM24.2,18.2 24.8,18.2 24.8,18.8 24.2,18.8zM25.2,18.2 25.8,18.2 25.8,18.8 25.2,18.8zM26.2,18.2 26.8,18.2 26.8,18.8 26.2,18.8zM30.2,18.2 30.8,18.2 30.8,18.8 30.2,18.8zM34.2,18.2 34.8,18.2 34.8,18.8 34.2,18.8zM35.2,18.2 35.8,18.2 35.8,18.8 35.2,18.8zM36.2,18.2 36.8,18.2 36.8,18.8 36.2,18.8zM38.2,18.2 38.8,18.2 38.8,18.8 38.2,18.8zM39.2,18.2 39.8,18.2 39.8,18.8 39.2,18.8zM41.2,18.2 41.8,18.2 41.8,18.8 41.2,18.8zM43.2,18.2 43.8,18.2 43.8,18.8 43.2,18.8zM44.2,18.2 44.8,18.2 44.8,18.8 44.2,18.8zM4.2,19.2 4.8,19.2 4.8,19.8 4.2,19.8zM7.2,19.2 7.8,19.2 7.8,19.8 7.2,19.8zM8.2,19.2 8.8,19.2 8.8,19.8 8.2,19.8zM12.2,19.2 12.8,19.2 12.8,19.8 12.2,19.8zM16.2,19.2 16.8,19.2 16.8,19.8 16.2,19.8zM17.2,19.2 17.8,19.2 17.8,19.8 17.2,19.8zM18.2,19.2 18.8,19.2 18.8,19.8 18.2,19.8zM19.2,19.2 19.8,19.2 19.8,19.8 19.2,19.8zM20.2,19.2 20.8,19.2 20.8,19.8 20.2,19.8zM27.2,19.2 27.8,19.2 27.8,19.8 27.2,19.8zM30.2,19.2 30.8,19.2 30.8,19.8 30.2,19.8zM31.2,19.2 31.8,19.2 31.8,19.8 31.2,19.8zM33.2,19.2 33.8,19.2 33.8,19.8 33.2,19.8zM34.2,19.2 34.8,19.2 34.8,19.8 34.2,19.8zM36.2,19.2 36.8,19.2 36.8,19.8 36.2,19.8zM38.2,19.2 38.8,19.2 38.8,19.8 38.2,19.8zM40.2,19.2 40.8,19.2 40.8,19.8 40.2,19.8zM4.2,20.2 4.8,20.2 4.8,20.8 4.2,20.8zM5.2,20.2 5.8,20.2 5.8,20.8 5.2,20.8zM6.2,20.2 6.8,20.2 6.8,20.8 6.2,20.8zM8.2,20.2 8.8,20.2 8.8,20.8 8.2,20.8zM9.2,20.2 9.8,20.2 9.8,20.8 9.2,20.8zM10.2,20.2 10.8,20.2 10.8,20.8 10.2,20.8zM13.2,20.2 13.8,20.2 13.8,20.8 13.2,20.8zM14.2,20.2 14.8,20.2 14.8,20.8 14.2,20.8zM15.2,20.2 15.8,20.2 15.8,20.8 15.2,20.8zM16.2,20.2 16.8,20.2 16.8,20.8 16.2,20.8zM18.2,20.2 18.8,20.2 18.8,20.8 18.2,20.8zM19.2,20.2 19.8,20.2 19.8,20.8 19.2,20.8zM20.2,20.2 20.8,20.2 20.8,20.8 20.2,20.8zM23.2,20.2 23.8,20.2 23.8,20.8 23.2,20.8zM24.2,20.2 24.8,20.2 24.8,20.8 24.2,20.8zM26.2,20.2 26.8,20.2 26.8,20.8 26.2,20.8zM27.2,20.2 27.8,20.2 27.8,20.8 27.2,20.8zM28.2,20.2 28.8,20.2 28.8,20.8 28.2,20.8zM29.2,20.2 29.8,20.2 29.8,20.8 29.2,20.8zM32.2,20.2 32.8,20.2 32.8,20.8 32.2,20.8zM33.2,20.2 33.8,20.2 33.8,20.8 33.2,20.8zM34.2,20.2 34.8,20.2 34.8,20.8 34.2,20.8zM35.2,20.2 35.8,20.2 35.8,20.8 35.2,20.8zM36.2,20.2 36.8,20.2 36.8,20.8 36.2,20.8zM38.2,20.2 38.8,20.2 38.8,20.8 38.2,20.8zM39.2,20.2 39.8,20.2 39.8,20.8 39.2,20.8zM4.2,21.2 4.8,21.2 4.8,21.8 4.2,21.8zM8.2,21.2 8.8,21.2 8.8,21.8 8.2,21.8zM9.2,21.2 9.8,21.2 9.8,21.8 9.2,21.8zM12.2,21.2 12.8,21.2 12.8,21.8 12.2,21.8zM14.2,21.2 14.8,21.2 14.8,21.8 14.2,21.8zM17.2,21.2 17.8,21.2 17.8,21.8 17.2,21.8zM20.2,21.2 20.8,21.2 20.8,21.8 20.2,21.8zM22.2,21.2 22.8,21.2 22.8,21.8 22.2,21.8zM23.2,21.2 23.8,21.2 23.8,21.8 23.2,21.8zM25.2,21.2 25.8,21.2 25.8,21.8 25.2,21.8zM26.2,21.2 26.8,21.2 26.8,21.8 26.2,21.8zM27.2,21.2 27.8,21.2 27.8,21.8 27.2,21.8zM28.2,21.2 28.8,21.2 28.8,21.8 28.2,21.8zM30.2,21.2 30.8,21.2 30.8,21.8 30.2,21.8zM32.2,21.2 32.8,21.2 32.8,21.8 32.2,21.8zM36.2,21.2 36.8,21.2 36.8,21.8 36.2,21.8zM38.2,21.2 38.8,21.2 38.8,21.8 38.2,21.8zM43.2,21.2 43.8,21.2 43.8,21.8 43.2,21.8zM44.2,21.2 44.8,21.2 44.8,21.8 44.2,21.8zM4.2,22.2 4.8,22.2 4.8,22.8 4.2,22.8zM5.2,22.2 5.8,22.2 5.8,22.8 5.2,22.8zM7.2,22.2 7.8,22.2 7.8,22.8 7.2,22.8zM9.2,22.2 9.8,22.2 9.8,22.8 9.2,22.8zM10.2,22.2 10.8,22.2 10.8,22.8 10.2,22.8zM12.2,22.2 12.8,22.2 12.8,22.8 12.2,22.8zM16.2,22.2 16.8,22.2 16.8,22.8 16.2,22.8zM17.2,22.2 17.8,22.2 17.8,22.8 17.2,22.8zM18.2,22.2 18.8,22.2 18.8,22.8 18.2,22.8zM22.2,22.2 22.8,22.2 22.8,22.8 22.2,22.8zM23.2,22.2 23.8,22.2 23.8,22.8 23.2,22.8zM27.2,22.2 27.8,22.2 27.8,22.8 27.2,22.8zM30.2,22.2 30.8,22.2 30.8,22.8 30.2,22.8zM33.2,22.2 33.8,22.2 33.8,22.8 33.2,22.8zM37.2,22.2 37.8,22.2 37.8,22.8 37.2,22.8zM38.2,22.2 38.8,22.2 38.8,22.8 38.2,22.8zM40.2,22.2 40.8,22.2 40.8,22.8 40.2,22.8zM42.2,22.2 42.8,22.2 42.8,22.8 42.2,22.8zM43.2,22.2 43.8,22.2 43.8,22.8 43.2,22.8zM44.2,22.2 44.8,22.2 44.8,22.8 44.2,22.8zM4.2,23.2 4.8,23.2 4.8,23.8 4.2,23.8zM6.2,23.2 6.8,23.2 6.8,23.8 6.2,23.8zM8.2,23.2 8.8,23.2 8.8,23.8 8.2,23.8zM9.2,23.2 9.8,23.2 9.8,23.8 9.2,23.8zM11.2,23.2 11.8,23.2 11.8,23.8 11.2,23.8zM13.2,23.2 13.8,23.2 13.8,23.8 13.2,23.8zM17.2,23.2 17.8,23.2 17.8,23.8 17.2,23.8zM19.2,23.2 19.8,23.2 19.8,23.8 19.2,23.8zM22.2,23.2 22.8,23.2 22.8,23.8 22.2,23.8zM25.2,23.2 25.8,23.2 25.8,23.8 25.2,23.8zM26.2,23.2 26.8,23.2 26.8,23.8 26.2,23.8zM27.2,23.2 27.8,23.2 27.8,23.8 27.2,23.8zM28.2,23.2 28.8,23.2 28.8,23.8 28.2,23.8zM30.2,23.2 30.8,23.2 30.8,23.8 30.2,23.8zM31.2,23.2 31.8,23.2 31.8,23.8 31.2,23.8zM32.2,23.2 32.8,23.2 32.8,23.8 32.2,23.8zM39.2,23.2 39.8,23.2 39.8,23.8 39.2,23.8zM43.2,23.2 43.8,23.2 43.8,23.8 43.2,23.8zM44.2,23.2 44.8,23.2 44.8,23.8 44.2,23.8zM4.2,24.2 4.8,24.2 4.8,24.8 4.2,24.8zM8.2,24.2 8.8,24.2 8.8,24.8 8.2,24.8zM10.2,24.2 10.8,24.2 10.8,24.8 10.2,24.8zM13.2,24.2 13.8,24.2 13.8,24.8 13.2,24.8zM16.2,24.2 16.8,24.2 16.8,24.8 16.2,24.8zM19.2,24.2 19.8,24.2 19.8,24.8 19.2,24.8zM22.2,24.2 22.8,24.2 22.8,24.8 22.2,24.8zM25.2,24.2 25.8,24.2 25.8,24.8 25.2,24.8zM28.2,24.2 28.8,24.2 28.8,24.8 28.2,24.8zM29.2,24.2 29.8,24.2 29.8,24.8 29.2,24.8zM30.2,24.2 30.8,24.2 30.8,24.8 30.2,24.8zM32.2,24.2 32.8,24.2 32.8,24.8 32.2,24.8zM37.2,24.2 37.8,24.2 37.8,24.8 37.2,24.8zM38.2,24.2 38.8,24.2 38.8,24.8 38.2,24.8zM43.2,24.2 43.8,24.2 43.8,24.8 43.2,24.8zM4.2,25.2 4.8,25.2 4.8,25.8 4.2,25.8zM6.2,25.2 6.8,25.2 6.8,25.8 6.2,25.8zM7.2,25.2 7.8,25.2 7.8,25.8 7.2,25.8zM11.2,25.2 11.8,25.2 11.8,25.8 11.2,25.8zM12.2,25.2 12.8,25.2 12.8,25.8 12.2,25.8zM16.2,25.2 16.8,25.2 16.8,25.8 16.2,25.8zM22.2,25.2 22.8,25.2 22.8,25.8 22.2,25.8zM25.2,25.2 25.8,25.2 25.8,25.8 25.2,25.8zM30.2,25.2 30.8,25.2 30.8,25.8 30.2,25.8zM32.2,25.2 32.8,25.2 32.8,25.8 32.2,25.8zM36.2,25.2 36.8,25.2 36.8,25.8 36.2,25.8zM38.2,25.2 38.8,25.2 38.8,25.8 38.2,25.8zM39.2,25.2 39.8,25.2 39.8,25.8 39.2,25.8zM41.2,25.2 41.8,25.2 41.8,25.8 41.2,25.8zM43.2,25.2 43.8,25.2 43.8,25.8 43.2,25.8zM44.2,25.2 44.8,25.2 44.8,25.8 44.2,25.8zM4.2,26.2 4.8,26.2 4.8,26.8 4.2,26.8zM6.2,26.2 6.8,26.2 6.8,26.8 6.2,26.8zM8.2,26.2 8.8,26.2 8.8,26.8 8.2,26.8zM9.2,26.2 9.8,26.2 9.8,26.8 9.2,26.8zM10.2,26.2 10.8,26.2 10.8,26.8 10.2,26.8zM12.2,26.2 12.8,26.2 12.8,26.8 12.2,26.8zM16.2,26.2 16.8,26.2 16.8,26.8 16.2,26.8zM17.2,26.2 17.8,26.2 17.8,26.8 17.2,26.8zM18.2,26.2 18.8,26.2 18.8,26.8 18.2,26.8zM19.2,26.2 19.8,26.2 19.8,26.8 19.2,26.8zM21.2,26.2 21.8,26.2 21.8,26.8 21.2,26.8zM22.2,26.2 22.8,26.2 22.8,26.8 22.2,26.8zM23.2,26.2 23.8,26.2 23.8,26.8 23.2,26.8zM25.2,26.2 25.8,26.2 25.8,26.8 25.2,26.8zM28.2,26.2 28.8,26.2 28.8,26.8 28.2,26.8zM30.2,26.2 30.8,26.2 30.8,26.8 30.2,26.8zM34.2,26.2 34.8,26.2 34.8,26.8 34.2,26.8zM36.2,26.2 36.8,26.2 36.8,26.8 36.2,26.8zM37.2,26.2 37.8,26.2 37.8,26.8 37.2,26.8zM39.2,26.2 39.8,26.2 39.8,26.8 39.2,26.8zM41.2,26.2 41.8,26.2 41.8,26.8 41.2,26.8zM43.2,26.2 43.8,26.2 43.8,26.8 43.2,26.8zM44.2,26.2 44.8,26.2 44.8,26.8 44.2,26.8zM5.2,27.2 5.8,27.2 5.8,27.8 5.2,27.8zM7.2,27.2 7.8,27.2 7.8,27.8 7.2,27.8zM9.2,27.2 9.8,27.2 9.8,27.8 9.2,27.8zM12.2,27.2 12.8,27.2 12.8,27.8 12.2,27.8zM15.2,27.2 15.8,27.2 15.8,27.8 15.2,27.8zM16.2,27.2 16.8,27.2 16.8,27.8 16.2,27.8zM17.2,27.2 17.8,27.2 17.8,27.8 17.2,27.8zM18.2,27.2 18.8,27.2 18.8,27.8 18.2,27.8zM19.2,27.2 19.8,27.2 19.8,27.8 19.2,27.8zM21.2,27.2 21.8,27.2 21.8,27.8 21.2,27.8zM22.2,27.2 22.8,27.2 22.8,27.8 22.2,27.8zM24.2,27.2 24.8,27.2 24.8,27.8 24.2,27.8zM25.2,27.2 25.8,27.2 25.8,27.8 25.2,27.8zM26.2,27.2 26.8,27.2 26.8,27.8 26.2,27.8zM31.2,27.2 31.8,27.2 31.8,27.8 31.2,27.8zM33.2,27.2 33.8,27.2 33.8,27.8 33.2,27.8zM34.2,27.2 34.8,27.2 34.8,27.8 34.2,27.8zM35.2,27.2 35.8,27.2 35.8,27.8 35.2,27.8zM39.2,27.2 39.8,27.2 39.8,27.8 39.2,27.8zM4.2,28.2 4.8,28.2 4.8,28.8 4.2,28.8zM7.2,28.2 7.8,28.2 7.8,28.8 7.2,28.8zM10.2,28.2 10.8,28.2 10.8,28.8 10.2,28.8zM15.2,28.2 15.8,28.2 15.8,28.8 15.2,28.8zM20.2,28.2 20.8,28.2 20.8,28.8 20.2,28.8zM21.2,28.2 21.8,28.2 21.8,28.8 21.2,28.8zM22.2,28.2 22.8,28.2 22.8,28.8 22.2,28.8zM25.2,28.2 25.8,28.2 25.8,28.8 25.2,28.8zM27.2,28.2 27.8,28.2 27.8,28.8 27.2,28.8zM30.2,28.2 30.8,28.2 30.8,28.8 30.2,28.8zM31.2,28.2 31.8,28.2 31.8,28.8 31.2,28.8zM33.2,28.2 33.8,28.2 33.8,28.8 33.2,28.8zM36.2,28.2 36.8,28.2 36.8,28.8 36.2,28.8zM38.2,28.2 38.8,28.2 38.8,28.8 38.2,28.8zM44.2,28.2 44.8,28.2 44.8,28.8 44.2,28.8zM5.2,29.2 5.8,29.2 5.8,29.8 5.2,29.8zM6.2,29.2 6.8,29.2 6.8,29.8 6.2,29.8zM12.2,29.2 12.8,29.2 12.8,29.8 12.2,29.8zM13.2,29.2 13.8,29.2 13.8,29.8 13.2,29.8zM14.2,29.2 14.8,29.2 14.8,29.8 14.2,29.8zM17.2,29.2 17.8,29.2 17.8,29.8 17.2,29.8zM22.2,29.2 22.8,29.2 22.8,29.8 22.2,29.8zM25.2,29.2 25.8,29.2 25.8,29.8 25.2,29.8zM26.2,29.2 26.8,29.2 26.8,29.8 26.2,29.8zM32.2,29.2 32.8,29.2 32.8,29.8 32.2,29.8zM33.2,29.2 33.8,29.2 33.8,29.8 33.2,29.8zM34.2,29.2 34.8,29.2 34.8,29.8 34.2,29.8zM37.2,29.2 37.8,29.2 37.8,29.8 37.2,29.8zM38.2,29.2 38.8,29.2 38.8,29.8 38.2,29.8zM43.2,29.2 43.8,29.2 43.8,29.8 43.2,29.8zM44.2,29.2 44.8,29.2 44.8,29.8 44.2,29.8zM4.2,30.2 4.8,30.2 4.8,30.8 4.2,30.8zM7.2,30.2 7.8,30.2 7.8,30.8 7.2,30.8zM9.2,30.2 9.8,30.2 9.8,30.8 9.2,30.8zM10.2,30.2 10.8,30.2 10.8,30.8 10.2,30.8zM13.2,30.2 13.8,30.2 13.8,30.8 13.2,30.8zM16.2,30.2 16.8,30.2 16.8,30.8 16.2,30.8zM17.2,30.2 17.8,30.2 17.8,30.8 17.2,30.8zM18.2,30.2 18.8,30.2 18.8,30.8 18.2,30.8zM20.2,30.2 20.8,30.2 20.8,30.8 20.2,30.8zM24.2,30.2 24.8,30.2 24.8,30.8 24.2,30.8zM26.2,30.2 26.8,30.2 26.8,30.8 26.2,30.8zM27.2,30.2 27.8,30.2 27.8,30.8 27.2,30.8zM30.2,30.2 30.8,30.2 30.8,30.8 30.2,30.8zM32.2,30.2 32.8,30.2 32.8,30.8 32.2,30.8zM33.2,30.2 33.8,30.2 33.8,30.8 33.2,30.8zM34.2,30.2 34.8,30.2 34.8,30.8 34.2,30.8zM37.2,30.2 37.8,30.2 37.8,30.8 37.2,30.8zM39.2,30.2 39.8,30.2 39.8,30.8 39.2,30.8zM40.2,30.2 40.8,30.2 40.8,30.8 40.2,30.8zM42.2,30.2 42.8,30.2 42.8,30.8 42.2,30.8zM43.2,30.2 43.8,30.2 43.8,30.8 43.2,30.8zM44.2,30.2 44.8,30.2 44.8,30.8 44.2,30.8zM6.2,31.2 6.8,31.2 6.8,31.8 6.2,31.8zM8.2,31.2 8.8,31.2 8.8,31.8 8.2,31.8zM9.2,31.2 9.8,31.2 9.8,31.8 9.2,31.8zM12.2,31.2 12.8,31.2 12.8,31.8 12.2,31.8zM16.2,31.2 16.8,31.2 16.8,31.8 16.2,31.8zM18.2,31.2 18.8,31.2 18.8,31.8 18.2,31.8zM19.2,31.2 19.8,31.2 19.8,31.8 19.2,31.8zM21.2,31.2 21.8,31.2 21.8,31.8 21.2,31.8zM22.2,31.2 22.8,31.2 22.8,31.8 22.2,31.8zM23.2,31.2 23.8,31.2 23.8,31.8 23.2,31.8zM24.2,31.2 24.8,31.2 24.8,31.8 24.2,31.8zM25.2,31.2 25.8,31.2 25.8,31.8 25.2,31.8zM26.2,31.2 26.8,31.2 26.8,31.8 26.2,31.8zM31.2,31.2 31.8,31.2 31.8,31.8 31.2,31.8zM33.2,31.2 33.8,31.2 33.8,31.8 33.2,31.8zM34.2,31.2 34.8,31.2 34.8,31.8 34.2,31.8zM36.2,31.2 36.8,31.2 36.8,31.8 36.2,31.8zM37.2,31.2 37.8,31.2 37.8,31.8 37.2,31.8zM38.2,31.2 38.8,31.2 38.8,31.8 38.2,31.8zM40.2,31.2 40.8,31.2 40.8,31.8 40.2,31.8zM4.2,32.2 4.8,32.2 4.8,32.8 4.2,32.8zM6.2,32.2 6.8,32.2 6.8,32.8 6.2,32.8zM10.2,32.2 10.8,32.2 10.8,32.8 10.2,32.8zM12.2,32.2 12.8,32.2 12.8,32.8 12.2,32.8zM13.2,32.2 13.8,32.2 13.8,32.8 13.2,32.8zM16.2,32.2 16.8,32.2 16.8,32.8 16.2,32.8zM17.2,32.2 17.8,32.2 17.8,32.8 17.2,32.8zM18.2,32.2 18.8,32.2 18.8,32.8 18.2,32.8zM22.2,32.2 22.8,32.2 22.8,32.8 22.2,32.8zM23.2,32.2 23.8,32.2 23.8,32.8 23.2,32.8zM24.2,32.2 24.8,32.2 24.8,32.8 24.2,32.8zM25.2,32.2 25.8,32.2 25.8,32.8 25.2,32.8zM26.2,32.2 26.8,32.2 26.8,32.8 26.2,32.8zM28.2,32.2 28.8,32.2 28.8,32.8 28.2,32.8zM31.2,32.2 31.8,32.2 31.8,32.8 31.2,32.8zM32.2,32.2 32.8,32.2 32.8,32.8 32.2,32.8zM33.2,32.2 33.8,32.2 33.8,32.8 33.2,32.8zM35.2,32.2 35.8,32.2 35.8,32.8 35.2,32.8zM37.2,32.2 37.8,32.2 37.8,32.8 37.2,32.8zM41.2,32.2 41.8,32.2 41.8,32.8 41.2,32.8zM43.2,32.2 43.8,32.2 43.8,32.8 43.2,32.8zM44.2,32.2 44.8,32.2 44.8,32.8 44.2,32.8zM5.2,33.2 5.8,33.2 5.8,33.8 5.2,33.8zM8.2,33.2 8.8,33.2 8.8,33.8 8.2,33.8zM13.2,33.2 13.8,33.2 13.8,33.8 13.2,33.8zM14.2,33.2 14.8,33.2 14.8,33.8 14.2,33.8zM15.2,33.2 15.8,33.2 15.8,33.8 15.2,33.8zM16.2,33.2 16.8,33.2 16.8,33.8 16.2,33.8zM20.2,33.2 20.8,33.2 20.8,33.8 20.2,33.8zM23.2,33.2 23.8,33.2 23.8,33.8 23.2,33.8zM26.2,33.2 26.8,33.2 26.8,33.8 26.2,33.8zM27.2,33.2 27.8,33.2 27.8,33.8 27.2,33.8zM30.2,33.2 30.8,33.2 30.8,33.8 30.2,33.8zM31.2,33.2 31.8,33.2 31.8,33.8 31.2,33.8zM32.2,33.2 32.8,33.2 32.8,33.8 32.2,33.8zM34.2,33.2 34.8,33.2 34.8,33.8 34.2,33.8zM35.2,33.2 35.8,33.2 35.8,33.8 35.2,33.8zM37.2,33.2 37.8,33.2 37.8,33.8 37.2,33.8zM39.2,33.2 39.8,33.2 39.8,33.8 39.2,33.8zM42.2,33.2 42.8,33.2 42.8,33.8 42.2,33.8zM43.2,33.2 43.8,33.2 43.8,33.8 43.2,33.8zM44.2,33.2 44.8,33.2 44.8,33.8 44.2,33.8zM4.2,34.2 4.8,34.2 4.8,34.8 4.2,34.8zM6.2,34.2 6.8,34.2 6.8,34.8 6.2,34.8zM7.2,34.2 7.8,34.2 7.8,34.8 7.2,34.8zM9.2,34.2 9.8,34.2 9.8,34.8 9.2,34.8zM10.2,34.2 10.8,34.2 10.8,34.8 10.2,34.8zM13.2,34.2 13.8,34.2 13.8,34.8 13.2,34.8zM14.2,34.2 14.8,34.2 14.8,34.8 14.2,34.8zM18.2,34.2 18.8,34.2 18.8,34.8 18.2,34.8zM23.2,34.2 23.8,34.2 23.8,34.8 23.2,34.8zM25.2,34.2 25.8,34.2 25.8,34.8 25.2,34.8zM27.2,34.2 27.8,34.2 27.8,34.8 27.2,34.8zM28.2,34.2 28.8,34.2 28.8,34.8 28.2,34.8zM29.2,34.2 29.8,34.2 29.8,34.8 29.2,34.8zM31.2,34.2 31.8,34.2 31.8,34.8 31.2,34.8zM32.2,34.2 32.8,34.2 32.8,34.8 32.2,34.8zM33.2,34.2 33.8,34.2 33.8,34.8 33.2,34.8zM39.2,34.2 39.8,34.2 39.8,34.8 39.2,34.8zM40.2,34.2 40.8,34.2 40.8,34.8 40.2,34.8zM41.2,34.2 41.8,34.2 41.8,34.8 41.2,34.8zM43.2,34.2 43.8,34.2 43.8,34.8 43.2,34.8zM44.2,34.2 44.8,34.2 44.8,34.8 44.2,34.8zM5.2,35.2 5.8,35.2 5.8,35.8 5.2,35.8zM7.2,35.2 7.8,35.2 7.8,35.8 7.2,35.8zM9.2,35.2 9.8,35.2 9.8,35.8 9.2,35.8zM11.2,35.2 11.8,35.2 11.8,35.8 11.2,35.8zM12.2,35.2 12.8,35.2 12.8,35.8 12.2,35.8zM16.2,35.2 16.8,35.2 16.8,35.8 16.2,35.8zM17.2,35.2 17.8,35.2 17.8,35.8 17.2,35.8zM18.2,35.2 18.8,35.2 18.8,35.8 18.2,35.8zM22.2,35.2 22.8,35.2 22.8,35.8 22.2,35.8zM23.2,35.2 23.8,35.2 23.8,35.8 23.2,35.8zM24.2,35.2 24.8,35.2 24.8,35.8 24.2,35.8zM25.2,35.2 25.8,35.2 25.8,35.8 25.2,35.8zM26.2,35.2 26.8,35.2 26.8,35.8 26.2,35.8zM28.2,35.2 28.8,35.2 28.8,35.8 28.2,35.8zM32.2,35.2 32.8,35.2 32.8,35.8 32.2,35.8zM33.2,35.2 33.8,35.2 33.8,35.8 33.2,35.8zM34.2,35.2 34.8,35.2 34.8,35.8 34.2,35.8zM35.2,35.2 35.8,35.2 35.8,35.8 35.2,35.8zM37.2,35.2 37.8,35.2 37.8,35.8 37.2,35.8zM38.2,35.2 38.8,35.2 38.8,35.8 38.2,35.8zM40.2,35.2 40.8,35.2 40.8,35.8 40.2,35.8zM44.2,35.2 44.8,35.2 44.8,35.8 44.2,35.8zM4.2,36.2 4.8,36.2 4.8,36.8 4.2,36.8zM9.2,36.2 9.8,36.2 9.8,36.8 9.2,36.8zM10.2,36.2 10.8,36.2 10.8,36.8 10.2,36.8zM11.2,36.2 11.8,36.2 11.8,36.8 11.2,36.8zM12.2,36.2 12.8,36.2 12.8,36.8 12.2,36.8zM14.2,36.2 14.8,36.2 14.8,36.8 14.2,36.8zM15.2,36.2 15.8,36.2 15.8,36.8 15.2,36.8zM17.2,36.2 17.8,36.2 17.8,36.8 17.2,36.8zM19.2,36.2 19.8,36.2 19.8,36.8 19.2,36.8zM20.2,36.2 20.8,36.2 20.8,36.8 20.2,36.8zM24.2,36.2 24.8,36.2 24.8,36.8 24.2,36.8zM25.2,36.2 25.8,36.2 25.8,36.8 25.2,36.8zM26.2,36.2 26.8,36.2 26.8,36.8 26.2,36.8zM28.2,36.2 28.8,36.2 28.8,36.8 28.2,36.8zM31.2,36.2 31.8,36.2 31.8,36.8 31.2,36.8zM32.2,36.2 32.8,36.2 32.8,36.8 32.2,36.8zM33.2,36.2 33.8,36.2 33.8,36.8 33.2,36.8zM36.2,36.2 36.8,36.2 36.8,36.8 36.2,36.8zM37.2,36.2 37.8,36.2 37.8,36.8 37.2,36.8zM38.2,36.2 38.8,36.2 38.8,36.8 38.2,36.8zM39.2,36.2 39.8,36.2 39.8,36.8 39.2,36.8zM40.2,36.2 40.8,36.2 40.8,36.8 40.2,36.8zM43.2,36.2 43.8,36.2 43.8,36.8 43.2,36.8zM12.2,37.2 12.8,37.2 12.8,37.8 12.2,37.8zM16.2,37.2 16.8,37.2 16.8,37.8 16.2,37.8zM17.2,37.2 17.8,37.2 17.8,37.8 17.2,37.8zM18.2,37.2 18.8,37.2 18.8,37.8 18.2,37.8zM19.2,37.2 19.8,37.2 19.8,37.8 19.2,37.8zM20.2,37.2 20.8,37.2 20.8,37.8 20.2,37.8zM21.2,37.2 21.8,37.2 21.8,37.8 21.2,37.8zM22.2,37.2 22.8,37.2 22.8,37.8 22.2,37.8zM23.2,37.2 23.8,37.2 23.8,37.8 23.2,37.8zM24.2,37.2 24.8,37.2 24.8,37.8 24.2,37.8zM25.2,37.2 25.8,37.2 25.8,37.8 25.2,37.8zM29.2,37.2 29.8,37.2 29.8,37.8 29.2,37.8zM32.2,37.2 32.8,37.2 32.8,37.8 32.2,37.8zM33.2,37.2 33.8,37.2 33.8,37.8 33.2,37.8zM34.2,37.2 34.8,37.2 34.8,37.8 34.2,37.8zM35.2,37.2 35.8,37.2 35.8,37.8 35.2,37.8zM36.2,37.2 36.8,37.2 36.8,37.8 36.2,37.8zM40.2,37.2 40.8,37.2 40.8,37.8 40.2,37.8zM43.2,37.2 43.8,37.2 43.8,37.8 43.2,37.8zM44.2,37.2 44.8,37.2 44.8,37.8 44.2,37.8zM4.2,38.2 4.8,38.2 4.8,38.8 4.2,38.8zM5.2,38.2 5.8,38.2 5.8,38.8 5.2,38.8zM6.2,38.2 6.8,38.2 6.8,38.8 6.2,38.8zM7.2,38.2 7.8,38.2 7.8,38.8 7.2,38.8zM8.2,38.2 8.8,38.2 8.8,38.8 8.2,38.8zM9.2,38.2 9.8,38.2 9.8,38.8 9.2,38.8zM10.2,38.2 10.8,38.2 10.8,38.8 10.2,38.8zM14.2,38.2 14.8,38.2 14.8,38.8 14.2,38.8zM15.2,38.2 15.8,38.2 15.8,38.8 15.2,38.8zM20.2,38.2 20.8,38.2 20.8,38.8 20.2,38.8zM22.2,38.2 22.8,38.2 22.8,38.8 22.2,38.8zM23.2,38.2 23.8,38.2 23.8,38.8 23.2,38.8zM24.2,38.2 24.8,38.2 24.8,38.8 24.2,38.8zM28.2,38.2 28.8,38.2 28.8,38.8 28.2,38.8zM29.2,38.2 29.8,38.2 29.8,38.8 29.2,38.8zM30.2,38.2 30.8,38.2 30.8,38.8 30.2,38.8zM32.2,38.2 32.8,38.2 32.8,38.8 32.2,38.8zM34.2,38.2 34.8,38.2 34.8,38.8 34.2,38.8zM35.2,38.2 35.8,38.2 35.8,38.8 35.2,38.8zM36.2,38.2 36.8,38.2 36.8,38.8 36.2,38.8zM38.2,38.2 38.8,38.2 38.8,38.8 38.2,38.8zM40.2,38.2 40.8,38.2 40.8,38.8 40.2,38.8zM44.2,38.2 44.8,38.2 44.8,38.8 44.2,38.8zM4.2,39.2 4.8,39.2 4.8,39.8 4.2,39.8zM10.2,39.2 10.8,39.2 10.8,39.8 10.2,39.8zM12.2,39.2 12.8,39.2 12.8,39.8 12.2,39.8zM13.2,39.2 13.8,39.2 13.8,39.8 13.2,39.8zM15.2,39.2 15.8,39.2 15.8,39.8 15.2,39.8zM17.2,39.2 17.8,39.2 17.8,39.8 17.2,39.8zM19.2,39.2 19.8,39.2 19.8,39.8 19.2,39.8zM20.2,39.2 20.8,39.2 20.8,39.8 20.2,39.8zM24.2,39.2 24.8,39.2 24.8,39.8 24.2,39.8zM26.2,39.2 26.8,39.2 26.8,39.8 26.2,39.8zM28.2,39.2 28.8,39.2 28.8,39.8 28.2,39.8zM29.2,39.2 29.8,39.2 29.8,39.8 29.2,39.8zM30.2,39.2 30.8,39.2 30.8,39.8 30.2,39.8zM33.2,39.2 33.8,39.2 33.8,39.8 33.2,39.8zM34.2,39.2 34.8,39.2 34.8,39.8 34.2,39.8zM36.2,39.2 36.8,39.2 36.8,39.8 36.2,39.8zM40.2,39.2 40.8,39.2 40.8,39.8 40.2,39.8zM41.2,39.2 41.8,39.2 41.8,39.8 41.2,39.8zM43.2,39.2 43.8,39.2 43.8,39.8 43.2,39.8zM44.2,39.2 44.8,39.2 44.8,39.8 44.2,39.8zM4.2,40.2 4.8,40.2 4.8,40.8 4.2,40.8zM6.2,40.2 6.8,40.2 6.8,40.8 6.2,40.8zM7.2,40.2 7.8,40.2 7.8,40.8 7.2,40.8zM8.2,40.2 8.8,40.2 8.8,40.8 8.2,40.8zM10.2,40.2 10.8,40.2 10.8,40.8 10.2,40.8zM12.2,40.2 12.8,40.2 12.8,40.8 12.2,40.8zM14.2,40.2 14.8,40.2 14.8,40.8 14.2,40.8zM15.2,40.2 15.8,40.2 15.8,40.8 15.2,40.8zM16.2,40.2 16.8,40.2 16.8,40.8 16.2,40.8zM17.2,40.2 17.8,40.2 17.8,40.8 17.2,40.8zM20.2,40.2 20.8,40.2 20.8,40.8 20.2,40.8zM21.2,40.2 21.8,40.2 21.8,40.8 21.2,40.8zM22.2,40.2 22.8,40.2 22.8,40.8 22.2,40.8zM23.2,40.2 23.8,40.2 23.8,40.8 23.2,40.8zM24.2,40.2 24.8,40.2 24.8,40.8 24.2,40.8zM26.2,40.2 26.8,40.2 26.8,40.8 26.2,40.8zM27.2,40.2 27.8,40.2 27.8,40.8 27.2,40.8zM32.2,40.2 32.8,40.2 32.8,40.8 32.2,40.8zM34.2,40.2 34.8,40.2 34.8,40.8 34.2,40.8zM36.2,40.2 36.8,40.2 36.8,40.8 36.2,40.8zM37.2,40.2 37.8,40.2 37.8,40.8 37.2,40.8zM38.2,40.2 38.8,40.2 38.8,40.8 38.2,40.8zM39.2,40.2 39.8,40.2 39.8,40.8 39.2,40.8zM40.2,40.2 40.8,40.2 40.8,40.8 40.2,40.8zM44.2,40.2 44.8,40.2 44.8,40.8 44.2,40.8zM4.2,41.2 4.8,41.2 4.8,41.8 4.2,41.8zM6.2,41.2 6.8,41.2 6.8,41.8 6.2,41.8zM7.2,41.2 7.8,41.2 7.8,41.8 7.2,41.8zM8.2,41.2 8.8,41.2 8.8,41.8 8.2,41.8zM10.2,41.2 10.8,41.2 10.8,41.8 10.2,41.8zM13.2,41.2 13.8,41.2 13.8,41.8 13.2,41.8zM15.2,41.2 15.8,41.2 15.8,41.8 15.2,41.8zM18.2,41.2 18.8,41.2 18.8,41.8 18.2,41.8zM19.2,41.2 19.8,41.2 19.8,41.8 19.2,41.8zM20.2,41.2 20.8,41.2 20.8,41.8 20.2,41.8zM21.2,41.2 21.8,41.2 21.8,41.8 21.2,41.8zM23.2,41.2 23.8,41.2 23.8,41.8 23.2,41.8zM29.2,41.2 29.8,41.2 29.8,41.8 29.2,41.8zM32.2,41.2 32.8,41.2 32.8,41.8 32.2,41.8zM33.2,41.2 33.8,41.2 33.8,41.8 33.2,41.8zM34.2,41.2 34.8,41.2 34.8,41.8 34.2,41.8zM37.2,41.2 37.8,41.2 37.8,41.8 37.2,41.8zM40.2,41.2 40.8,41.2 40.8,41.8 40.2,41.8zM44.2,41.2 44.8,41.2 44.8,41.8 44.2,41.8zM4.2,42.2 4.8,42.2 4.8,42.8 4.2,42.8zM6.2,42.2 6.8,42.2 6.8,42.8 6.2,42.8zM7.2,42.2 7.8,42.2 7.8,42.8 7.2,42.8zM8.2,42.2 8.8,42.2 8.8,42.8 8.2,42.8zM10.2,42.2 10.8,42.2 10.8,42.8 10.2,42.8zM12.2,42.2 12.8,42.2 12.8,42.8 12.2,42.8zM15.2,42.2 15.8,42.2 15.8,42.8 15.2,42.8zM16.2,42.2 16.8,42.2 16.8,42.8 16.2,42.8zM17.2,42.2 17.8,42.2 17.8,42.8 17.2,42.8zM18.2,42.2 18.8,42.2 18.8,42.8 18.2,42.8zM23.2,42.2 23.8,42.2 23.8,42.8 23.2,42.8zM24.2,42.2 24.8,42.2 24.8,42.8 24.2,42.8zM25.2,42.2 25.8,42.2 25.8,42.8 25.2,42.8zM27.2,42.2 27.8,42.2 27.8,42.8 27.2,42.8zM28.2,42.2 28.8,42.2 28.8,42.8 28.2,42.8zM35.2,42.2 35.8,42.2 35.8,42.8 35.2,42.8zM39.2,42.2 39.8,42.2 39.8,42.8 39.2,42.8zM40.2,42.2 40.8,42.2 40.8,42.8 40.2,42.8zM41.2,42.2 41.8,42.2 41.8,42.8 41.2,42.8zM42.2,42.2 42.8,42.2 42.8,42.8 42.2,42.8zM44.2,42.2 44.8,42.2 44.8,42.8 44.2,42.8zM4.2,43.2 4.8,43.2 4.8,43.8 4.2,43.8zM10.2,43.2 10.8,43.2 10.8,43.8 10.2,43.8zM14.2,43.2 14.8,43.2 14.8,43.8 14.2,43.8zM16.2,43.2 16.8,43.2 16.8,43.8 16.2,43.8zM18.2,43.2 18.8,43.2 18.8,43.8 18.2,43.8zM19.2,43.2 19.8,43.2 19.8,43.8 19.2,43.8zM21.2,43.2 21.8,43.2 21.8,43.8 21.2,43.8zM25.2,43.2 25.8,43.2 25.8,43.8 25.2,43.8zM33.2,43.2 33.8,43.2 33.8,43.8 33.2,43.8zM36.2,43.2 36.8,43.2 36.8,43.8 36.2,43.8zM37.2,43.2 37.8,43.2 37.8,43.8 37.2,43.8zM39.2,43.2 39.8,43.2 39.8,43.8 39.2,43.8zM43.2,43.2 43.8,43.2 43.8,43.8 43.2,43.8zM4.2,44.2 4.8,44.2 4.8,44.8 4.2,44.8zM5.2,44.2 5.8,44.2 5.8,44.8 5.2,44.8zM6.2,44.2 6.8,44.2 6.8,44.8 6.2,44.8zM7.2,44.2 7.8,44.2 7.8,44.8 7.2,44.8zM8.2,44.2 8.8,44.2 8.8,44.8 8.2,44.8zM9.2,44.2 9.8,44.2 9.8,44.8 9.2,44.8zM10.2,44.2 10.8,44.2 10.8,44.8 10.2,44.8zM15.2,44.2 15.8,44.2 15.8,44.8 15.2,44.8zM17.2,44.2 17.8,44.2 17.8,44.8 17.2,44.8zM18.2,44.2 18.8,44.2 18.8,44.8 18.2,44.8zM19.2,44.2 19.8,44.2 19.8,44.8 19.2,44.8zM20.2,44.2 20.8,44.2 20.8,44.8 20.2,44.8zM23.2,44.2 23.8,44.2 23.8,44.8 23.2,44.8zM29.2,44.2 29.8,44.2 29.8,44.8 29.2,44.8zM32.2,44.2 32.8,44.2 32.8,44.8 32.2,44.8zM33.2,44.2 33.8,44.2 33.8,44.8 33.2,44.8zM35.2,44.2 35.8,44.2 35.8,44.8 35.2,44.8zM36.2,44.2 36.8,44.2 36.8,44.8 36.2,44.8zM37.2,44.2 37.8,44.2 37.8,44.8 37.2,44.8zM39.2,44.2 39.8,44.2 39.8,44.8 39.2,44.8zM40.2,44.2 40.8,44.2 40.8,44.8 40.2,44.8zM41.2,44.2 41.8,44.2 41.8,44.8 41.2,44.8zM43.2,44.2 43.8,44.2 43.8,44.8 43.2,44.8zM44.2,44.2 44.8,44.2 44.8,44.8 44.2,44.8z" stroke-width=".3" stroke-linejoin="round" stroke="#000000" fill="#000000"/></svg>